<svg xmlns="http://www.w3.org/2000/svg" xmlns:xlink="http://www.w3.org/1999/xlink" width="1080" zoomAndPan="magnify" viewBox="0 0 810 809.999993" height="1080" preserveAspectRatio="xMidYMid meet" version="1.0"><defs><g/><clipPath id="19748ca34e"><path d="M 401.078125 185 L 404.828125 185 L 404.828125 557 L 401.078125 557 Z M 401.078125 185 " clip-rule="nonzero"/></clipPath><clipPath id="deba08a541"><path d="M 354.734375 248.625 L 455.265625 248.625 L 455.265625 484.125 L 354.734375 484.125 Z M 354.734375 248.625 " clip-rule="nonzero"/></clipPath></defs><rect x="-81" width="972" fill="#ffffff" y="-80.999999" height="971.999992" fill-opacity="1"/><rect x="-81" width="972" fill="#ffffff" y="-80.999999" height="971.999992" fill-opacity="1"/><g clip-path="url(#19748ca34e)"><path fill="#40ac70" d="M 404.964844 185.191406 L 404.964844 556.546875 L 401.066406 556.546875 L 401.066406 185.191406 L 404.964844 185.191406 " fill-opacity="1" fill-rule="nonzero"/></g><g clip-path="url(#deba08a541)"><path fill="#40ac70" d="M 354.734375 248.625 L 455.265625 248.625 L 455.265625 484.238281 L 354.734375 484.238281 Z M 354.734375 248.625 " fill-opacity="1" fill-rule="nonzero"/></g><g fill="#000000" fill-opacity="1"><g transform="translate(477.117243, 256.123308)"><g><path d="M 1.03125 -8.375 C 1.03125 -10.007812 1.394531 -11.476562 2.125 -12.78125 C 2.863281 -14.082031 3.867188 -15.097656 5.140625 -15.828125 C 6.421875 -16.566406 7.835938 -16.9375 9.390625 -16.9375 C 11.210938 -16.9375 12.800781 -16.492188 14.15625 -15.609375 C 15.519531 -14.734375 16.515625 -13.488281 17.140625 -11.875 L 14.515625 -11.875 C 14.054688 -12.882812 13.390625 -13.660156 12.515625 -14.203125 C 11.640625 -14.753906 10.597656 -15.03125 9.390625 -15.03125 C 8.210938 -15.03125 7.160156 -14.753906 6.234375 -14.203125 C 5.304688 -13.660156 4.578125 -12.890625 4.046875 -11.890625 C 3.523438 -10.890625 3.265625 -9.71875 3.265625 -8.375 C 3.265625 -7.050781 3.523438 -5.890625 4.046875 -4.890625 C 4.578125 -3.890625 5.304688 -3.113281 6.234375 -2.5625 C 7.160156 -2.019531 8.210938 -1.75 9.390625 -1.75 C 10.597656 -1.75 11.640625 -2.015625 12.515625 -2.546875 C 13.390625 -3.085938 14.054688 -3.863281 14.515625 -4.875 L 17.140625 -4.875 C 16.515625 -3.269531 15.519531 -2.03125 14.15625 -1.15625 C 12.800781 -0.289062 11.210938 0.140625 9.390625 0.140625 C 7.835938 0.140625 6.421875 -0.222656 5.140625 -0.953125 C 3.867188 -1.679688 2.863281 -2.691406 2.125 -3.984375 C 1.394531 -5.273438 1.03125 -6.738281 1.03125 -8.375 Z M 1.03125 -8.375 "/></g></g></g><g fill="#000000" fill-opacity="1"><g transform="translate(372.858705, 210.44664)"><g><path d="M 10.21875 -8.609375 C 10.832031 -8.515625 11.390625 -8.265625 11.890625 -7.859375 C 12.390625 -7.460938 12.785156 -6.96875 13.078125 -6.375 C 13.378906 -5.789062 13.53125 -5.160156 13.53125 -4.484375 C 13.53125 -3.640625 13.3125 -2.875 12.875 -2.1875 C 12.445312 -1.507812 11.820312 -0.972656 11 -0.578125 C 10.175781 -0.191406 9.207031 0 8.09375 0 L 1.84375 0 L 1.84375 -16.734375 L 7.84375 -16.734375 C 8.976562 -16.734375 9.945312 -16.539062 10.75 -16.15625 C 11.550781 -15.78125 12.148438 -15.273438 12.546875 -14.640625 C 12.953125 -14.003906 13.15625 -13.285156 13.15625 -12.484375 C 13.15625 -11.484375 12.882812 -10.660156 12.34375 -10.015625 C 11.8125 -9.367188 11.101562 -8.898438 10.21875 -8.609375 Z M 4.03125 -9.5 L 7.703125 -9.5 C 8.722656 -9.5 9.515625 -9.738281 10.078125 -10.21875 C 10.640625 -10.695312 10.921875 -11.363281 10.921875 -12.21875 C 10.921875 -13.0625 10.640625 -13.722656 10.078125 -14.203125 C 9.515625 -14.679688 8.707031 -14.921875 7.65625 -14.921875 L 4.03125 -14.921875 Z M 7.890625 -1.796875 C 8.984375 -1.796875 9.832031 -2.050781 10.4375 -2.5625 C 11.050781 -3.082031 11.359375 -3.796875 11.359375 -4.703125 C 11.359375 -5.628906 11.035156 -6.359375 10.390625 -6.890625 C 9.753906 -7.429688 8.898438 -7.703125 7.828125 -7.703125 L 4.03125 -7.703125 L 4.03125 -1.796875 Z M 7.890625 -1.796875 "/></g></g></g><g fill="#000000" fill-opacity="1"><g transform="translate(322.64609, 373.873302)"><g><path d="M 7.0625 -16.734375 C 8.882812 -16.734375 10.460938 -16.390625 11.796875 -15.703125 C 13.128906 -15.023438 14.148438 -14.050781 14.859375 -12.78125 C 15.578125 -11.519531 15.9375 -10.035156 15.9375 -8.328125 C 15.9375 -6.617188 15.578125 -5.132812 14.859375 -3.875 C 14.148438 -2.613281 13.128906 -1.648438 11.796875 -0.984375 C 10.460938 -0.328125 8.882812 0 7.0625 0 L 1.84375 0 L 1.84375 -16.734375 Z M 7.0625 -1.796875 C 9.21875 -1.796875 10.863281 -2.367188 12 -3.515625 C 13.132812 -4.660156 13.703125 -6.265625 13.703125 -8.328125 C 13.703125 -10.410156 13.128906 -12.035156 11.984375 -13.203125 C 10.835938 -14.367188 9.195312 -14.953125 7.0625 -14.953125 L 4.03125 -14.953125 L 4.03125 -1.796875 Z M 7.0625 -1.796875 "/></g></g></g><g fill="#000000" fill-opacity="1"><g transform="translate(420.961086, 182.246641)"><g><path d="M 11.734375 -3.71875 L 4.4375 -3.71875 L 3.09375 0 L 0.796875 0 L 6.84375 -16.625 L 9.359375 -16.625 L 15.390625 0 L 13.078125 0 Z M 11.109375 -5.5 L 8.09375 -13.9375 L 5.0625 -5.5 Z M 11.109375 -5.5 "/></g></g></g><g fill="#000000" fill-opacity="1"><g transform="translate(486.382851, 491.623291)"><g><path d="M 4.03125 -14.953125 L 4.03125 -9.359375 L 10.125 -9.359375 L 10.125 -7.5625 L 4.03125 -7.5625 L 4.03125 -1.796875 L 10.84375 -1.796875 L 10.84375 0 L 1.84375 0 L 1.84375 -16.75 L 10.84375 -16.75 L 10.84375 -14.953125 Z M 4.03125 -14.953125 "/></g></g></g><g fill="#000000" fill-opacity="1"><g transform="translate(373.042281, 534.223289)"><g><path d="M 11.296875 -16.734375 L 11.296875 -14.953125 L 4.03125 -14.953125 L 4.03125 -9.3125 L 9.9375 -9.3125 L 9.9375 -7.53125 L 4.03125 -7.53125 L 4.03125 0 L 1.84375 0 L 1.84375 -16.734375 Z M 11.296875 -16.734375 "/></g></g></g><g fill="#000000" fill-opacity="1"><g transform="translate(421.750158, 574.499991)"><g><path d="M 14.515625 -11.875 C 14.054688 -12.851562 13.382812 -13.609375 12.5 -14.140625 C 11.625 -14.679688 10.601562 -14.953125 9.4375 -14.953125 C 8.269531 -14.953125 7.21875 -14.679688 6.28125 -14.140625 C 5.34375 -13.609375 4.601562 -12.84375 4.0625 -11.84375 C 3.53125 -10.84375 3.265625 -9.6875 3.265625 -8.375 C 3.265625 -7.0625 3.53125 -5.910156 4.0625 -4.921875 C 4.601562 -3.929688 5.34375 -3.164062 6.28125 -2.625 C 7.21875 -2.09375 8.269531 -1.828125 9.4375 -1.828125 C 11.0625 -1.828125 12.398438 -2.3125 13.453125 -3.28125 C 14.515625 -4.257812 15.132812 -5.582031 15.3125 -7.25 L 8.640625 -7.25 L 8.640625 -9.03125 L 17.640625 -9.03125 L 17.640625 -7.34375 C 17.515625 -5.96875 17.082031 -4.707031 16.34375 -3.5625 C 15.601562 -2.414062 14.632812 -1.507812 13.4375 -0.84375 C 12.238281 -0.1875 10.90625 0.140625 9.4375 0.140625 C 7.882812 0.140625 6.46875 -0.222656 5.1875 -0.953125 C 3.90625 -1.679688 2.890625 -2.691406 2.140625 -3.984375 C 1.398438 -5.273438 1.03125 -6.738281 1.03125 -8.375 C 1.03125 -10.007812 1.398438 -11.476562 2.140625 -12.78125 C 2.890625 -14.082031 3.90625 -15.097656 5.1875 -15.828125 C 6.46875 -16.554688 7.882812 -16.921875 9.4375 -16.921875 C 11.207031 -16.921875 12.773438 -16.476562 14.140625 -15.59375 C 15.515625 -14.71875 16.515625 -13.476562 17.140625 -11.875 Z M 14.515625 -11.875 "/></g></g></g></svg>