<svg version="1.1" viewBox="0.0 0.0 379.0 261.0" fill="none" stroke="none" stroke-linecap="square" stroke-miterlimit="10" xmlns:xlink="http://www.w3.org/1999/xlink" xmlns="http://www.w3.org/2000/svg"><clipPath id="p.0"><path d="m0 0l379.0 0l0 261.0l-379.0 0l0 -261.0z" clip-rule="nonzero"/></clipPath><g clip-path="url(#p.0)"><path fill="#000000" fill-opacity="0.0" d="m0 0l379.0 0l0 261.0l-379.0 0z" fill-rule="evenodd"/><path fill="#ffffff" d="m118.13625 194.56996l79.88682 -128.1408l49.98198 0l-79.88681 128.1408z" fill-rule="evenodd"/><path fill="#ffffff" d="m248.00505 194.56996l-79.88681 -128.1408l-49.981987 0l79.88682 128.1408z" fill-rule="evenodd"/><path stroke="#000000" stroke-width="1.0" stroke-linejoin="round" stroke-linecap="butt" d="m248.00505 194.56996l-79.88681 -128.1408l-49.981987 0l79.88682 128.1408z" fill-rule="evenodd"/><path fill="#ffffff" d="m299.8269 130.10017l-39.694397 -63.671005l-51.209488 0l39.694412 63.671005z" fill-rule="evenodd"/><path stroke="#000000" stroke-width="1.0" stroke-linejoin="round" stroke-linecap="butt" d="m299.8269 130.10017l-39.694397 -63.671005l-51.209488 0l39.694412 63.671005z" fill-rule="evenodd"/><path fill="#ffffff" d="m208.273 194.56989l39.694412 -63.671005l51.209473 0l-39.694397 63.671005z" fill-rule="evenodd"/><path stroke="#000000" stroke-width="1.0" stroke-linejoin="round" stroke-linecap="butt" d="m208.273 194.56989l39.694412 -63.671005l51.209473 0l-39.694397 63.671005z" fill-rule="evenodd"/><path fill="#ffffff" d="m79.1718 66.42917l38.964897 0l0 128.1408l-38.964897 0z" fill-rule="evenodd"/><path stroke="#000000" stroke-width="1.0" stroke-linejoin="round" stroke-linecap="butt" d="m79.1718 66.42917l38.964897 0l0 128.1408l-38.964897 0z" fill-rule="evenodd"/><path fill="#ffffff" d="m118.136696 104.738976l25.905586 25.760597l-25.905586 25.76059z" fill-rule="evenodd"/><path stroke="#000000" stroke-width="1.0" stroke-linejoin="round" stroke-linecap="butt" d="m118.136696 104.738976l25.905586 25.760597l-25.905586 25.76059z" fill-rule="evenodd"/><path fill="#000000" d="m79.171425 66.42929l19.482452 0l-19.482452 19.22322z" fill-rule="evenodd"/><path stroke="#000000" stroke-width="1.0" stroke-linejoin="round" stroke-linecap="butt" d="m79.171425 66.42929l19.482452 0l-19.482452 19.22322z" fill-rule="evenodd"/></g></svg>