<svg id="logo-black-svg" version="1.1" viewBox="0.0 0.0 960.0 720.0" fill="none" stroke="none" stroke-linecap="square" stroke-miterlimit="10" xmlns:xlink="http://www.w3.org/1999/xlink" xmlns="http://www.w3.org/2000/svg"><clipPath id="p.0"><path d="m0 0l960.0 0l0 720.0l-960.0 0l0 -720.0z" clip-rule="nonzero"/></clipPath><g clip-path="url(#p.0)"><path fill="#000000" fill-opacity="0.0" d="m0 0l960.0 0l0 720.0l-960.0 0z" fill-rule="evenodd"/><path fill="#000000" d="m192.0 168.0l144.0 0l0 96.0l-144.0 0z" fill-rule="evenodd"/><path fill="#000000" d="m288.0 168.0l0 288.0l-96.0 0l0 -288.0z" fill-rule="evenodd"/><path fill="#000000" d="m291.6 459.6l192.0 0l0 95.99997l-192.0 0z" fill-rule="evenodd"/><path fill="#000000" d="m483.6 459.6l0 -144.0l95.99997 0l0 144.0z" fill-rule="evenodd"/><path fill="#000000" d="m579.6 171.6l192.0 0l0 96.0l-192.0 0z" fill-rule="evenodd"/><path fill="#000000" d="m335.99948 264.00052l0 -96.0l96.0 96.0z" fill-rule="evenodd"/><path fill="#000000" d="m483.5995 459.5995l96.0 0l-96.0 96.0z" fill-rule="evenodd"/><path fill="#000000" d="m483.60074 315.60104l95.99997 0l0 96.0l-95.99997 0z" fill-rule="evenodd"/><path fill="#000000" d="m579.6005 267.60052l-96.0 0l96.0 -96.0z" fill-rule="evenodd"/><path fill="#000000" d="m483.6 267.6l95.99997 0l0 43.212585l-95.99997 0z" fill-rule="evenodd"/><path fill="#000000" d="m191.99948 455.99948l96.0 0l-96.0 95.99997z" fill-rule="evenodd"/><path fill="#000000" d="m291.60052 555.6005l-96.0 0l96.0 -96.0z" fill-rule="evenodd"/><path fill="#000000" d="m483.60104 364.8294l0 -49.228363l-48.0 49.228363z" fill-rule="evenodd"/></g></svg>