<svg xmlns="http://www.w3.org/2000/svg" xmlns:xlink="http://www.w3.org/1999/xlink" width="1080" zoomAndPan="magnify" viewBox="0 0 810 809.999993" height="1080" preserveAspectRatio="xMidYMid meet" version="1.0"><defs><g/><clipPath id="f2d0e85aad"><path d="M 401.078125 185 L 404.828125 185 L 404.828125 557 L 401.078125 557 Z M 401.078125 185 " clip-rule="nonzero"/></clipPath><clipPath id="a396a6502f"><path d="M 354.734375 248.625 L 455.265625 248.625 L 455.265625 484.125 L 354.734375 484.125 Z M 354.734375 248.625 " clip-rule="nonzero"/></clipPath></defs><g clip-path="url(#f2d0e85aad)"><path fill="#40ac70" d="M 404.964844 185.191406 L 404.964844 556.546875 L 401.066406 556.546875 L 401.066406 185.191406 L 404.964844 185.191406 " fill-opacity="1" fill-rule="nonzero"/></g><g clip-path="url(#a396a6502f)"><path fill="#40ac70" d="M 354.734375 248.625 L 455.265625 248.625 L 455.265625 484.238281 L 354.734375 484.238281 Z M 354.734375 248.625 " fill-opacity="1" fill-rule="nonzero"/></g><g fill="#000000" fill-opacity="1"><g transform="translate(472.406308, 491.623291)"><g><path d="M 9.4375 0.171875 C 7.882812 0.171875 6.46875 -0.191406 5.1875 -0.921875 C 3.90625 -1.648438 2.890625 -2.664062 2.140625 -3.96875 C 1.398438 -5.269531 1.03125 -6.738281 1.03125 -8.375 C 1.03125 -10.007812 1.398438 -11.476562 2.140625 -12.78125 C 2.890625 -14.082031 3.90625 -15.097656 5.1875 -15.828125 C 6.46875 -16.554688 7.882812 -16.921875 9.4375 -16.921875 C 11 -16.921875 12.421875 -16.554688 13.703125 -15.828125 C 14.984375 -15.097656 15.988281 -14.082031 16.71875 -12.78125 C 17.457031 -11.488281 17.828125 -10.019531 17.828125 -8.375 C 17.828125 -6.726562 17.457031 -5.253906 16.71875 -3.953125 C 15.988281 -2.660156 14.984375 -1.648438 13.703125 -0.921875 C 12.421875 -0.191406 11 0.171875 9.4375 0.171875 Z M 9.4375 -1.734375 C 10.601562 -1.734375 11.648438 -2.003906 12.578125 -2.546875 C 13.515625 -3.085938 14.25 -3.863281 14.78125 -4.875 C 15.320312 -5.882812 15.59375 -7.050781 15.59375 -8.375 C 15.59375 -9.71875 15.320312 -10.890625 14.78125 -11.890625 C 14.25 -12.890625 13.519531 -13.660156 12.59375 -14.203125 C 11.664062 -14.753906 10.613281 -15.03125 9.4375 -15.03125 C 8.25 -15.03125 7.191406 -14.753906 6.265625 -14.203125 C 5.335938 -13.660156 4.601562 -12.890625 4.0625 -11.890625 C 3.53125 -10.890625 3.265625 -9.71875 3.265625 -8.375 C 3.265625 -7.050781 3.53125 -5.882812 4.0625 -4.875 C 4.601562 -3.863281 5.34375 -3.085938 6.28125 -2.546875 C 7.21875 -2.003906 8.269531 -1.734375 9.4375 -1.734375 Z M 9.4375 -1.734375 "/></g></g></g><g fill="#000000" fill-opacity="1"><g transform="translate(491.270347, 491.623291)"><g><path d="M 4.03125 -10.734375 C 4.46875 -11.484375 5.113281 -12.109375 5.96875 -12.609375 C 6.820312 -13.117188 7.816406 -13.375 8.953125 -13.375 C 10.117188 -13.375 11.175781 -13.09375 12.125 -12.53125 C 13.082031 -11.96875 13.832031 -11.175781 14.375 -10.15625 C 14.914062 -9.144531 15.1875 -7.96875 15.1875 -6.625 C 15.1875 -5.289062 14.914062 -4.101562 14.375 -3.0625 C 13.832031 -2.03125 13.082031 -1.222656 12.125 -0.640625 C 11.175781 -0.0664062 10.117188 0.21875 8.953125 0.21875 C 7.828125 0.21875 6.835938 -0.03125 5.984375 -0.53125 C 5.128906 -1.039062 4.476562 -1.671875 4.03125 -2.421875 L 4.03125 6.234375 L 1.84375 6.234375 L 1.84375 -13.15625 L 4.03125 -13.15625 Z M 12.953125 -6.625 C 12.953125 -7.613281 12.753906 -8.472656 12.359375 -9.203125 C 11.960938 -9.941406 11.421875 -10.503906 10.734375 -10.890625 C 10.054688 -11.273438 9.3125 -11.46875 8.5 -11.46875 C 7.695312 -11.46875 6.953125 -11.269531 6.265625 -10.875 C 5.585938 -10.488281 5.046875 -9.921875 4.640625 -9.171875 C 4.234375 -8.429688 4.03125 -7.570312 4.03125 -6.59375 C 4.03125 -5.601562 4.234375 -4.734375 4.640625 -3.984375 C 5.046875 -3.242188 5.585938 -2.675781 6.265625 -2.28125 C 6.953125 -1.894531 7.695312 -1.703125 8.5 -1.703125 C 9.3125 -1.703125 10.054688 -1.894531 10.734375 -2.28125 C 11.421875 -2.675781 11.960938 -3.242188 12.359375 -3.984375 C 12.753906 -4.734375 12.953125 -5.613281 12.953125 -6.625 Z M 12.953125 -6.625 "/></g></g></g><g fill="#000000" fill-opacity="1"><g transform="translate(507.494384, 491.623291)"><g><path d="M 13.84375 -7.078125 C 13.84375 -6.660156 13.820312 -6.222656 13.78125 -5.765625 L 3.265625 -5.765625 C 3.347656 -4.460938 3.789062 -3.445312 4.59375 -2.71875 C 5.40625 -1.988281 6.382812 -1.625 7.53125 -1.625 C 8.476562 -1.625 9.265625 -1.84375 9.890625 -2.28125 C 10.523438 -2.726562 10.972656 -3.320312 11.234375 -4.0625 L 13.578125 -4.0625 C 13.234375 -2.789062 12.53125 -1.757812 11.46875 -0.96875 C 10.414062 -0.175781 9.101562 0.21875 7.53125 0.21875 C 6.28125 0.21875 5.164062 -0.0625 4.1875 -0.625 C 3.207031 -1.1875 2.4375 -1.984375 1.875 -3.015625 C 1.3125 -4.046875 1.03125 -5.238281 1.03125 -6.59375 C 1.03125 -7.957031 1.300781 -9.148438 1.84375 -10.171875 C 2.382812 -11.203125 3.144531 -11.992188 4.125 -12.546875 C 5.113281 -13.097656 6.25 -13.375 7.53125 -13.375 C 8.78125 -13.375 9.882812 -13.097656 10.84375 -12.546875 C 11.800781 -12.003906 12.539062 -11.253906 13.0625 -10.296875 C 13.582031 -9.347656 13.84375 -8.273438 13.84375 -7.078125 Z M 11.59375 -7.53125 C 11.59375 -8.363281 11.40625 -9.078125 11.03125 -9.671875 C 10.664062 -10.273438 10.164062 -10.734375 9.53125 -11.046875 C 8.90625 -11.359375 8.207031 -11.515625 7.4375 -11.515625 C 6.332031 -11.515625 5.390625 -11.160156 4.609375 -10.453125 C 3.835938 -9.753906 3.394531 -8.78125 3.28125 -7.53125 Z M 11.59375 -7.53125 "/></g></g></g><g fill="#000000" fill-opacity="1"><g transform="translate(522.374415, 491.623291)"><g><path d="M 8.25 -13.390625 C 9.851562 -13.390625 11.148438 -12.90625 12.140625 -11.9375 C 13.128906 -10.96875 13.625 -9.570312 13.625 -7.75 L 13.625 0 L 11.46875 0 L 11.46875 -7.4375 C 11.46875 -8.75 11.140625 -9.753906 10.484375 -10.453125 C 9.828125 -11.148438 8.929688 -11.5 7.796875 -11.5 C 6.648438 -11.5 5.734375 -11.140625 5.046875 -10.421875 C 4.367188 -9.703125 4.03125 -8.648438 4.03125 -7.265625 L 4.03125 0 L 1.84375 0 L 1.84375 -13.15625 L 4.03125 -13.15625 L 4.03125 -11.28125 C 4.46875 -11.945312 5.054688 -12.460938 5.796875 -12.828125 C 6.535156 -13.203125 7.351562 -13.390625 8.25 -13.390625 Z M 8.25 -13.390625 "/></g></g></g><g fill="#000000" fill-opacity="1"><g transform="translate(471.46882, 256.123308)"><g><path d="M 1.03125 -8.375 C 1.03125 -10.007812 1.394531 -11.476562 2.125 -12.78125 C 2.863281 -14.082031 3.867188 -15.097656 5.140625 -15.828125 C 6.421875 -16.566406 7.835938 -16.9375 9.390625 -16.9375 C 11.210938 -16.9375 12.800781 -16.492188 14.15625 -15.609375 C 15.519531 -14.734375 16.515625 -13.488281 17.140625 -11.875 L 14.515625 -11.875 C 14.054688 -12.882812 13.390625 -13.660156 12.515625 -14.203125 C 11.640625 -14.753906 10.597656 -15.03125 9.390625 -15.03125 C 8.210938 -15.03125 7.160156 -14.753906 6.234375 -14.203125 C 5.304688 -13.660156 4.578125 -12.890625 4.046875 -11.890625 C 3.523438 -10.890625 3.265625 -9.71875 3.265625 -8.375 C 3.265625 -7.050781 3.523438 -5.890625 4.046875 -4.890625 C 4.578125 -3.890625 5.304688 -3.113281 6.234375 -2.5625 C 7.160156 -2.019531 8.210938 -1.75 9.390625 -1.75 C 10.597656 -1.75 11.640625 -2.015625 12.515625 -2.546875 C 13.390625 -3.085938 14.054688 -3.863281 14.515625 -4.875 L 17.140625 -4.875 C 16.515625 -3.269531 15.519531 -2.03125 14.15625 -1.15625 C 12.800781 -0.289062 11.210938 0.140625 9.390625 0.140625 C 7.835938 0.140625 6.421875 -0.222656 5.140625 -0.953125 C 3.867188 -1.679688 2.863281 -2.691406 2.125 -3.984375 C 1.394531 -5.273438 1.03125 -6.738281 1.03125 -8.375 Z M 1.03125 -8.375 "/></g></g></g><g fill="#000000" fill-opacity="1"><g transform="translate(489.996861, 256.123308)"><g><path d="M 4.03125 -17.765625 L 4.03125 0 L 1.84375 0 L 1.84375 -17.765625 Z M 4.03125 -17.765625 "/></g></g></g><g fill="#000000" fill-opacity="1"><g transform="translate(495.900868, 256.123308)"><g><path d="M 7.578125 0.21875 C 6.347656 0.21875 5.234375 -0.0625 4.234375 -0.625 C 3.234375 -1.1875 2.445312 -1.984375 1.875 -3.015625 C 1.3125 -4.046875 1.03125 -5.238281 1.03125 -6.59375 C 1.03125 -7.9375 1.320312 -9.125 1.90625 -10.15625 C 2.488281 -11.195312 3.285156 -11.992188 4.296875 -12.546875 C 5.304688 -13.097656 6.4375 -13.375 7.6875 -13.375 C 8.925781 -13.375 10.050781 -13.097656 11.0625 -12.546875 C 12.070312 -11.992188 12.867188 -11.203125 13.453125 -10.171875 C 14.035156 -9.148438 14.328125 -7.957031 14.328125 -6.59375 C 14.328125 -5.238281 14.023438 -4.046875 13.421875 -3.015625 C 12.828125 -1.984375 12.015625 -1.1875 10.984375 -0.625 C 9.960938 -0.0625 8.828125 0.21875 7.578125 0.21875 Z M 7.578125 -1.703125 C 8.367188 -1.703125 9.109375 -1.882812 9.796875 -2.25 C 10.484375 -2.625 11.035156 -3.175781 11.453125 -3.90625 C 11.878906 -4.644531 12.09375 -5.539062 12.09375 -6.59375 C 12.09375 -7.65625 11.882812 -8.550781 11.46875 -9.28125 C 11.050781 -10.019531 10.503906 -10.566406 9.828125 -10.921875 C 9.160156 -11.285156 8.4375 -11.46875 7.65625 -11.46875 C 6.851562 -11.46875 6.117188 -11.285156 5.453125 -10.921875 C 4.796875 -10.566406 4.265625 -10.019531 3.859375 -9.28125 C 3.460938 -8.550781 3.265625 -7.65625 3.265625 -6.59375 C 3.265625 -5.519531 3.457031 -4.613281 3.84375 -3.875 C 4.238281 -3.144531 4.765625 -2.597656 5.421875 -2.234375 C 6.078125 -1.878906 6.796875 -1.703125 7.578125 -1.703125 Z M 7.578125 -1.703125 "/></g></g></g><g fill="#000000" fill-opacity="1"><g transform="translate(511.260898, 256.123308)"><g><path d="M 6.5 0.21875 C 5.488281 0.21875 4.582031 0.046875 3.78125 -0.296875 C 2.988281 -0.640625 2.359375 -1.117188 1.890625 -1.734375 C 1.429688 -2.347656 1.175781 -3.054688 1.125 -3.859375 L 3.390625 -3.859375 C 3.453125 -3.203125 3.757812 -2.664062 4.3125 -2.25 C 4.863281 -1.832031 5.585938 -1.625 6.484375 -1.625 C 7.316406 -1.625 7.972656 -1.804688 8.453125 -2.171875 C 8.929688 -2.546875 9.171875 -3.015625 9.171875 -3.578125 C 9.171875 -4.148438 8.910156 -4.578125 8.390625 -4.859375 C 7.878906 -5.140625 7.09375 -5.414062 6.03125 -5.6875 C 5.050781 -5.945312 4.253906 -6.207031 3.640625 -6.46875 C 3.023438 -6.726562 2.492188 -7.117188 2.046875 -7.640625 C 1.609375 -8.160156 1.390625 -8.847656 1.390625 -9.703125 C 1.390625 -10.367188 1.585938 -10.984375 1.984375 -11.546875 C 2.390625 -12.109375 2.957031 -12.550781 3.6875 -12.875 C 4.425781 -13.207031 5.269531 -13.375 6.21875 -13.375 C 7.675781 -13.375 8.851562 -13.003906 9.75 -12.265625 C 10.644531 -11.523438 11.125 -10.515625 11.1875 -9.234375 L 9 -9.234375 C 8.945312 -9.921875 8.671875 -10.472656 8.171875 -10.890625 C 7.671875 -11.304688 6.992188 -11.515625 6.140625 -11.515625 C 5.359375 -11.515625 4.734375 -11.347656 4.265625 -11.015625 C 3.804688 -10.679688 3.578125 -10.242188 3.578125 -9.703125 C 3.578125 -9.265625 3.71875 -8.90625 4 -8.625 C 4.28125 -8.34375 4.628906 -8.117188 5.046875 -7.953125 C 5.472656 -7.785156 6.0625 -7.597656 6.8125 -7.390625 C 7.757812 -7.140625 8.53125 -6.890625 9.125 -6.640625 C 9.71875 -6.390625 10.222656 -6.015625 10.640625 -5.515625 C 11.066406 -5.023438 11.285156 -4.378906 11.296875 -3.578125 C 11.296875 -2.859375 11.097656 -2.207031 10.703125 -1.625 C 10.304688 -1.050781 9.742188 -0.597656 9.015625 -0.265625 C 8.285156 0.0546875 7.445312 0.21875 6.5 0.21875 Z M 6.5 0.21875 "/></g></g></g><g fill="#000000" fill-opacity="1"><g transform="translate(523.788928, 256.123308)"><g><path d="M 13.84375 -7.078125 C 13.84375 -6.660156 13.820312 -6.222656 13.78125 -5.765625 L 3.265625 -5.765625 C 3.347656 -4.460938 3.789062 -3.445312 4.59375 -2.71875 C 5.40625 -1.988281 6.382812 -1.625 7.53125 -1.625 C 8.476562 -1.625 9.265625 -1.84375 9.890625 -2.28125 C 10.523438 -2.726562 10.972656 -3.320312 11.234375 -4.0625 L 13.578125 -4.0625 C 13.234375 -2.789062 12.53125 -1.757812 11.46875 -0.96875 C 10.414062 -0.175781 9.101562 0.21875 7.53125 0.21875 C 6.28125 0.21875 5.164062 -0.0625 4.1875 -0.625 C 3.207031 -1.1875 2.4375 -1.984375 1.875 -3.015625 C 1.3125 -4.046875 1.03125 -5.238281 1.03125 -6.59375 C 1.03125 -7.957031 1.300781 -9.148438 1.84375 -10.171875 C 2.382812 -11.203125 3.144531 -11.992188 4.125 -12.546875 C 5.113281 -13.097656 6.25 -13.375 7.53125 -13.375 C 8.78125 -13.375 9.882812 -13.097656 10.84375 -12.546875 C 11.800781 -12.003906 12.539062 -11.253906 13.0625 -10.296875 C 13.582031 -9.347656 13.84375 -8.273438 13.84375 -7.078125 Z M 11.59375 -7.53125 C 11.59375 -8.363281 11.40625 -9.078125 11.03125 -9.671875 C 10.664062 -10.273438 10.164062 -10.734375 9.53125 -11.046875 C 8.90625 -11.359375 8.207031 -11.515625 7.4375 -11.515625 C 6.332031 -11.515625 5.390625 -11.160156 4.609375 -10.453125 C 3.835938 -9.753906 3.394531 -8.78125 3.28125 -7.53125 Z M 11.59375 -7.53125 "/></g></g></g></svg>