<svg width="36" height="36" viewBox="0 0 36 36" fill="none" xmlns="http://www.w3.org/2000/svg">
<mask id="mask0_1_75" style="mask-type:alpha" maskUnits="userSpaceOnUse" x="0" y="0" width="36" height="36">
<circle cx="17.5292" cy="17.5292" r="17.5292" fill="#AEAEAE"/>
</mask>
<g mask="url(#mask0_1_75)">
<path d="M28.6658 36.7425V33.1617C28.6658 31.2623 28.0951 29.4407 27.0793 28.0976C26.0635 26.7545 24.6859 26 23.2493 26H12.4165C10.98 26 9.60232 26.7545 8.58655 28.0976C7.57078 29.4407 7.00012 31.2623 7.00012 33.1617V36.7425" fill="#E3E3E3"/>
<path d="M17.3559 20.9871C20.3473 20.9871 22.7723 18.5621 22.7723 15.5707C22.7723 12.5793 20.3473 10.1543 17.3559 10.1543C14.3645 10.1543 11.9395 12.5793 11.9395 15.5707C11.9395 18.5621 14.3645 20.9871 17.3559 20.9871Z" fill="#E3E3E3"/>
</g>
</svg>
