<?xml version="1.0" standalone="no"?>
<!DOCTYPE svg PUBLIC "-//W3C//DTD SVG 20010904//EN"
 "http://www.w3.org/TR/2001/REC-SVG-20010904/DTD/svg10.dtd">
<svg version="1.0" xmlns="http://www.w3.org/2000/svg"
 width="2374.000000pt" height="1832.000000pt" viewBox="0 0 2374.000000 1832.000000"
 preserveAspectRatio="xMidYMid meet">

<g transform="translate(0.000000,1832.000000) scale(0.100000,-0.100000)"
fill="#000000" stroke="none">
<path d="M12645 17690 c-50 -5 -153 -18 -230 -30 -77 -11 -274 -41 -439 -65
-340 -51 -536 -84 -548 -92 -5 -3 -18 3 -28 12 -21 19 -48 15 -200 -30 -688
-206 -2063 -1082 -2470 -1575 -84 -102 -187 -267 -220 -352 -35 -91 -35 -93
-11 -117 18 -18 17 -20 -37 -107 -106 -170 -123 -236 -66 -250 33 -8 46 -2
232 113 248 154 557 301 581 277 10 -10 -108 -115 -239 -214 -74 -56 -120 -97
-120 -108 0 -22 19 -42 40 -42 9 0 97 49 196 108 98 60 211 126 249 147 l70
39 -87 -92 c-48 -51 -91 -105 -94 -119 -11 -41 7 -58 57 -57 43 1 96 27 419
207 l55 31 -67 -72 c-76 -81 -90 -112 -62 -143 32 -35 82 -19 324 104 241 123
408 191 391 159 -13 -24 -87 -92 -186 -171 -146 -117 -167 -145 -133 -179 25
-25 77 -10 243 69 199 95 342 159 355 159 5 0 11 -9 15 -19 10 -32 51 -34 113
-6 100 45 354 189 360 203 2 8 -2 20 -11 29 -13 13 -29 8 -151 -57 -127 -67
-138 -71 -155 -56 -10 9 -25 16 -33 16 -30 0 -216 -70 -349 -131 -74 -33 -149
-68 -167 -76 -27 -11 -13 7 66 84 71 70 101 107 107 131 10 45 -15 82 -56 82
-56 0 -190 -53 -410 -161 -131 -65 -215 -101 -210 -91 5 9 42 49 81 87 83 82
107 119 89 141 -26 32 -48 23 -454 -192 l-130 -68 82 91 c91 102 107 126 98
152 -14 46 -68 35 -208 -43 l-98 -54 36 39 c49 55 60 85 40 115 -12 18 -25 24
-53 24 -91 0 -346 -116 -609 -278 -154 -94 -177 -107 -171 -95 3 4 38 66 78
137 59 102 71 131 63 145 -26 40 144 300 300 459 387 395 1303 1015 1920 1299
263 121 400 173 459 173 29 0 91 9 138 20 105 24 100 24 100 0 0 -11 11 -27
24 -36 24 -15 31 -14 130 20 271 92 635 126 1338 126 366 0 529 -12 557 -40
12 -13 41 -19 126 -23 151 -8 280 -33 338 -65 l49 -26 17 22 16 22 129 -35
c148 -40 202 -67 231 -112 16 -26 25 -30 45 -26 34 8 34 8 20 43 -40 98 -181
147 -740 261 -273 55 -372 71 -472 76 -118 6 -129 8 -142 28 -27 41 -96 56
-271 60 -88 2 -201 0 -250 -5z m353 -77 c-43 -2 -113 -2 -155 0 -43 1 -8 3 77
3 85 0 120 -2 78 -3z"/>
<path d="M14688 17649 c-26 -15 -23 -57 5 -69 21 -9 233 -52 417 -84 47 -8
184 -29 305 -46 325 -45 531 -94 562 -133 20 -25 266 -256 482 -452 163 -148
154 -135 312 -488 95 -213 320 -660 409 -812 51 -88 159 -336 305 -700 39 -99
122 -286 183 -417 62 -130 112 -242 112 -250 0 -19 20 -38 42 -38 31 0 38 31
19 85 -40 112 -101 266 -146 365 -26 58 -76 177 -110 265 -35 88 -84 209 -110
268 -45 105 -46 110 -28 129 16 18 16 22 2 46 -9 15 -53 88 -98 162 -51 85
-111 205 -162 325 -86 205 -129 278 -171 297 -22 10 -41 42 -97 168 -86 191
-111 250 -107 250 2 0 39 -43 82 -95 87 -105 116 -122 146 -85 10 12 18 26 18
30 0 21 -109 149 -235 275 -77 77 -157 164 -179 193 -36 50 -101 103 -145 120
-18 7 -268 230 -321 287 l-25 27 40 -17 c22 -9 45 -19 51 -21 11 -5 44 21 44
34 -1 26 -90 75 -229 128 -69 26 -79 35 -116 107 -20 36 -31 47 -50 47 -31 0
-46 -26 -34 -58 5 -14 8 -26 6 -28 -2 -2 -55 7 -118 21 -63 13 -211 38 -329
55 -198 28 -665 105 -700 115 -8 2 -23 0 -32 -6z"/>
<path d="M14365 17576 c-27 -41 -7 -62 72 -75 97 -17 358 -83 573 -146 102
-29 239 -68 305 -85 66 -17 194 -54 285 -80 210 -62 232 -66 253 -45 10 9 17
23 17 30 0 18 -28 45 -45 45 -8 0 -87 25 -177 55 -90 30 -266 81 -393 115
-126 33 -313 83 -415 110 -187 51 -404 100 -440 100 -11 0 -27 -11 -35 -24z"/>
<path d="M13205 17323 c-88 -30 -461 -213 -650 -319 -173 -96 -684 -403 -1090
-652 -557 -342 -737 -449 -904 -534 l-156 -80 61 59 c63 62 224 191 784 633
540 425 709 572 736 635 17 42 5 80 -31 97 -38 17 -106 -8 -334 -122 -355
-178 -774 -446 -1510 -968 -35 -25 -61 -40 -57 -34 8 14 424 379 636 559 85
72 210 185 278 250 131 126 146 155 101 186 -33 24 -60 12 -219 -96 -228 -155
-935 -704 -1293 -1004 -104 -87 -288 -223 -302 -223 -11 0 51 66 353 378 203
208 280 282 295 280 40 -6 89 104 52 118 -13 5 -99 -75 -366 -342 -193 -192
-367 -371 -389 -399 -64 -83 -63 -135 3 -135 59 0 179 79 462 305 599 478
1065 842 1065 832 0 -3 -145 -130 -322 -283 -465 -400 -715 -620 -775 -678
-60 -57 -67 -86 -28 -112 24 -15 29 -15 73 1 72 28 177 94 402 255 720 514
1189 821 1512 990 141 73 260 128 243 112 -108 -104 -491 -412 -1030 -827
-475 -366 -575 -458 -575 -531 0 -92 106 -94 293 -5 171 82 356 190 1062 626
454 280 941 571 1110 663 159 87 524 267 529 261 5 -5 -97 -92 -200 -171 -332
-256 -833 -612 -1344 -955 -415 -279 -505 -356 -498 -425 5 -49 42 -66 105
-50 82 21 302 135 613 317 276 161 632 360 890 498 214 114 851 414 950 448
l55 19 -25 -20 c-289 -235 -786 -547 -1218 -766 -101 -51 -212 -102 -246 -114
-72 -24 -91 -36 -100 -66 -8 -26 28 -74 55 -74 81 0 554 196 1314 545 441 202
971 421 1273 526 124 42 156 57 165 76 14 30 -4 70 -35 78 -69 17 -929 -333
-1750 -714 -49 -22 -88 -39 -88 -37 0 2 53 37 118 77 266 166 582 388 645 456
37 40 45 91 19 123 -17 21 -28 25 -71 24 -94 -3 -194 -44 -681 -279 -429 -206
-708 -355 -1275 -680 -402 -230 -415 -237 -415 -232 0 3 114 83 253 178 404
277 835 583 1129 802 428 318 518 401 518 472 0 70 -61 87 -175 48z m-3165
-1297 c0 -2 -8 -10 -17 -17 -16 -13 -17 -12 -4 4 13 16 21 21 21 13z"/>
<path d="M15253 16811 c-36 -23 -374 -425 -517 -616 -149 -200 -183 -285 -119
-302 44 -11 65 3 493 313 l105 76 -85 -77 c-286 -262 -642 -646 -700 -755 -39
-74 -26 -154 27 -166 15 -3 35 -8 44 -10 79 -21 325 153 1019 725 l55 45 -45
-50 c-25 -27 -120 -125 -211 -219 -194 -200 -436 -467 -526 -580 -187 -234
-190 -429 -7 -427 98 1 233 88 569 369 99 82 245 208 325 279 167 148 246 216
310 264 l45 35 -29 -35 c-15 -19 -126 -136 -245 -260 -644 -667 -888 -940
-953 -1065 -13 -23 -22 -60 -22 -89 -1 -43 3 -51 34 -77 66 -56 176 -53 303 9
120 57 415 258 627 427 257 205 545 414 665 485 106 62 -228 -242 -675 -615
-173 -144 -306 -272 -339 -325 -25 -41 -27 -102 -5 -124 37 -38 115 -33 208
13 78 39 255 151 694 439 531 349 839 532 930 553 54 13 77 34 66 63 -25 65
-204 -3 -553 -213 -85 -51 -206 -127 -270 -170 -326 -218 -802 -516 -912 -571
l-44 -22 75 77 c75 77 421 391 687 622 230 201 313 298 313 366 0 27 -32 57
-60 57 -72 0 -470 -270 -905 -614 -167 -133 -448 -324 -540 -367 -61 -29 -153
-39 -183 -21 -50 32 170 288 963 1122 356 375 392 414 405 455 15 46 -7 85
-47 85 -63 0 -261 -143 -538 -386 -370 -326 -677 -574 -802 -649 -48 -28 -70
-36 -100 -33 -38 3 -38 3 -37 44 1 52 41 136 102 211 129 161 561 627 969
1045 170 174 198 213 173 243 -42 50 -119 -3 -705 -481 -217 -177 -541 -425
-647 -494 -166 -110 -202 -83 -86 65 141 177 584 619 953 949 197 177 244 236
199 253 -19 7 -78 -34 -399 -271 -378 -279 -527 -387 -589 -428 -93 -60 -98
-51 -30 49 77 113 190 259 343 443 228 276 233 281 258 293 16 7 23 18 21 31
-4 27 -18 29 -55 7z"/>
<path d="M14005 16359 c-267 -192 -348 -255 -362 -283 -14 -28 -14 -31 5 -46
20 -16 20 -17 1 -29 -30 -18 -45 -57 -29 -76 17 -20 22 -19 56 11 16 14 78 53
138 86 164 89 297 178 294 196 -7 34 -34 36 -79 5 -48 -32 -160 -100 -251
-152 -44 -25 -58 -29 -58 -17 0 13 114 102 353 275 68 50 87 69 85 85 -6 39
-41 26 -153 -55z"/>
<path d="M14243 16323 c-38 -36 -62 -83 -107 -210 -76 -219 -96 -423 -41 -423
22 0 35 34 35 95 0 77 24 188 70 317 44 126 79 185 112 190 17 2 23 10 23 28
0 39 -52 40 -92 3z"/>
<path d="M14382 16318 c-5 -7 -17 -35 -26 -63 -17 -53 -100 -623 -111 -760 -4
-44 -28 -170 -55 -280 -64 -264 -63 -262 -42 -283 16 -16 17 -22 5 -51 -21
-50 -32 -118 -54 -331 -11 -107 -29 -269 -39 -360 -34 -280 -27 -350 34 -350
33 0 45 17 135 195 45 88 79 151 76 140 -34 -110 -66 -232 -75 -289 -9 -58 -8
-72 5 -92 26 -40 56 -30 146 46 l83 70 15 -23 c23 -39 51 -52 69 -33 14 14 14
19 -3 55 -40 90 -77 90 -183 1 l-71 -60 6 38 c3 20 21 89 39 152 81 279 87
308 70 335 -38 58 -74 15 -201 -242 -75 -149 -104 -200 -104 -179 -1 48 77
736 93 820 10 50 28 101 52 143 39 70 39 93 -1 93 -14 0 -25 4 -25 9 0 5 18
85 40 177 21 93 42 183 46 199 3 17 10 75 15 129 10 114 72 560 96 687 9 47
13 93 10 102 -8 20 -30 22 -45 5z"/>
<path d="M13459 16082 c-129 -82 -355 -229 -504 -328 -148 -99 -298 -197 -332
-218 -63 -37 -76 -59 -51 -84 7 -7 19 -12 28 -12 24 0 172 93 660 417 l450
298 0 38 c0 20 -4 37 -9 37 -4 0 -113 -67 -242 -148z"/>
<path d="M13655 15884 c-188 -129 -395 -234 -460 -234 -20 0 -45 -24 -45 -44
0 -14 35 -36 58 -36 47 0 189 56 295 115 140 79 277 168 276 180 0 6 -8 26
-17 46 l-17 35 -90 -62z"/>
<path d="M12755 15728 c-177 -117 -456 -285 -546 -328 -68 -32 -139 -40 -157
-17 -6 6 -13 24 -17 39 -4 14 -17 36 -30 48 -22 20 -32 22 -100 18 -75 -5 -80
-7 -438 -188 -224 -114 -356 -176 -347 -163 141 195 166 254 112 261 -31 5
-65 -26 -58 -53 4 -15 -17 -49 -79 -128 -46 -59 -87 -116 -90 -126 -14 -45 21
-66 83 -49 20 5 200 91 400 191 340 170 367 182 419 182 55 0 57 -1 65 -32 10
-39 46 -69 94 -77 70 -14 135 10 326 120 244 140 565 341 571 357 7 21 -13 47
-36 46 -12 0 -89 -46 -172 -101z"/>
<path d="M8413 14880 c-33 -13 -98 -195 -142 -400 -11 -52 -41 -169 -66 -260
-25 -91 -55 -214 -66 -274 l-21 -110 20 -17 21 -17 -24 -193 c-47 -379 -60
-703 -29 -733 21 -21 57 -20 77 2 13 15 17 40 17 118 0 216 35 548 106 1017
69 461 99 576 189 726 55 94 53 100 -55 147 -3 1 -15 -2 -27 -6z"/>
<path d="M17223 14035 c-104 -19 -193 -51 -323 -115 -112 -56 -118 -57 -215
-63 -60 -3 -126 -13 -164 -25 -63 -21 -64 -21 -80 -1 -15 18 -22 19 -89 10
-130 -17 -256 -94 -324 -200 -15 -25 -28 -56 -28 -69 0 -28 -37 -169 -52 -197
-6 -10 -12 -41 -13 -68 -2 -26 -10 -56 -18 -65 -9 -10 -15 -33 -14 -52 0 -19
-11 -87 -26 -151 -29 -123 -34 -216 -16 -267 10 -29 8 -33 -25 -62 -55 -48
-79 -94 -74 -141 l4 -40 -85 3 c-98 3 -93 8 -133 -122 l-23 -75 -5 129 c-4
108 -8 131 -22 140 -28 17 -36 -1 -73 -145 -34 -138 -52 -189 -66 -189 -5 0
-16 15 -26 33 -15 26 -18 57 -18 166 0 116 -2 135 -17 145 -14 8 -21 7 -33 -5
-12 -12 -15 -41 -16 -134 -1 -131 4 -162 34 -217 41 -76 109 -72 150 9 22 42
25 45 31 25 9 -28 41 -45 67 -37 27 9 48 44 80 134 l27 76 67 3 c56 2 68 6 72
22 3 11 11 16 19 13 27 -10 44 16 38 58 -6 34 -2 44 29 83 20 24 48 47 62 50
29 7 30 16 10 71 -8 22 -14 64 -15 94 0 57 55 320 70 335 5 5 29 12 52 15 31
4 46 12 52 27 9 19 93 77 211 146 l40 23 -36 -50 c-26 -36 -60 -63 -115 -95
-65 -38 -79 -50 -79 -70 0 -54 49 -35 291 111 60 37 111 65 113 63 1 -1 -8
-18 -22 -36 -13 -18 -43 -65 -66 -105 -36 -60 -41 -75 -31 -92 12 -23 44 -28
60 -8 6 6 34 52 63 101 62 105 176 232 232 257 44 20 126 25 155 9 11 -6 31
-22 45 -36 27 -27 42 -28 59 -2 14 23 -36 85 -88 108 l-41 18 75 35 c154 72
287 84 350 31 54 -46 101 -17 60 38 -41 55 -26 62 86 43 95 -17 166 -44 201
-77 27 -25 53 -17 53 16 0 16 -12 34 -32 51 l-33 27 34 -19 c37 -20 94 -91
111 -137 8 -25 8 -27 -8 -21 -43 19 -60 17 -67 -6 -6 -18 -1 -28 21 -46 16
-13 43 -28 60 -33 31 -10 32 -14 44 -93 6 -45 18 -94 26 -110 19 -36 58 -55
79 -37 20 16 19 22 -5 50 -11 13 -20 30 -21 39 0 9 -4 40 -8 69 -7 51 -7 52
13 39 72 -47 101 -168 93 -381 -7 -174 -25 -262 -87 -411 -63 -151 -70 -174
-70 -220 0 -46 17 -69 47 -63 14 2 19 16 23 58 4 32 22 90 44 140 90 201 116
320 116 539 0 261 -49 380 -172 420 -25 8 -38 19 -38 30 0 35 -71 159 -111
196 -67 60 -119 78 -224 77 -49 0 -175 0 -280 1 -104 1 -237 2 -295 1 l-105
-1 90 43 c122 58 251 94 360 101 50 3 98 10 108 15 20 10 22 39 5 56 -15 15
-112 14 -205 -3z m-899 -293 c-61 -40 -144 -125 -144 -148 0 -7 10 -20 21 -28
21 -14 19 -16 -62 -55 -71 -34 -85 -38 -88 -24 -6 28 81 184 120 215 44 35
143 77 183 78 27 0 24 -3 -30 -38z m759 11 c38 -6 38 -6 -45 -33 -98 -31 -228
-97 -307 -155 -31 -22 -114 -72 -186 -109 l-130 -68 63 63 c41 42 100 86 174
129 122 71 144 93 116 114 -21 15 -24 36 -5 37 6 0 39 6 72 14 65 14 187 19
248 8z m200 -10 c-7 -2 -21 -2 -30 0 -10 3 -4 5 12 5 17 0 24 -2 18 -5z m-814
-69 c-7 -8 -26 -22 -43 -31 -36 -18 -30 -10 16 23 39 28 45 29 27 8z m-149
-17 c0 -2 -15 -16 -32 -33 l-33 -29 29 33 c28 30 36 37 36 29z"/>
<path d="M14904 13832 c-21 -16 -57 -48 -79 -72 -57 -60 -70 -65 -95 -38 -16
18 -24 20 -38 12 -26 -17 -26 -41 2 -69 30 -30 79 -33 116 -9 14 10 49 40 78
68 44 42 52 47 52 29 0 -51 40 -149 75 -183 32 -31 42 -35 103 -38 80 -5 142
16 142 46 0 26 -21 33 -62 21 -105 -30 -165 16 -183 141 -9 60 -25 110 -35
110 -5 0 -15 2 -22 5 -8 3 -32 -7 -54 -23z"/>
<path d="M15607 13713 c-30 -43 -100 -136 -156 -208 -107 -137 -156 -220 -145
-248 7 -19 36 -22 65 -7 18 10 19 10 3 -24 -9 -19 -14 -41 -11 -50 10 -25 58
-19 108 12 24 15 50 32 57 36 7 4 -16 -32 -52 -81 -70 -96 -90 -136 -81 -164
14 -42 76 -29 166 36 27 19 49 33 49 30 0 -3 -40 -64 -90 -137 -49 -72 -90
-134 -90 -138 0 -3 6 -15 14 -25 13 -19 16 -19 48 -3 55 26 338 239 338 255 0
36 -36 20 -155 -66 -69 -50 -127 -91 -130 -91 -3 0 33 55 79 123 92 133 106
166 82 186 -18 15 -47 0 -166 -83 -109 -77 -108 -75 77 175 93 126 106 155 78
165 -18 7 -41 -7 -145 -91 -44 -36 -83 -65 -87 -65 -3 0 21 28 53 63 123 129
176 200 167 225 -10 28 -47 6 -168 -99 -70 -62 -124 -105 -119 -96 10 17 173
232 215 281 14 17 40 55 58 84 27 43 31 55 21 67 -7 8 -16 15 -20 15 -5 0 -33
-35 -63 -77z"/>
<path d="M15231 13421 c-6 -10 -14 -68 -17 -128 l-7 -110 -76 -38 c-97 -47
-672 -363 -771 -423 -41 -24 -125 -71 -187 -103 l-112 -59 -21 47 c-11 25 -39
67 -63 93 -23 25 -50 61 -59 78 -19 35 -30 39 -50 18 -10 -9 -20 -11 -30 -5
-36 20 -190 50 -279 54 -52 3 -129 9 -170 15 -41 6 -114 10 -164 10 -59 -1
-138 7 -231 25 -90 16 -167 25 -210 23 -69 -3 -69 -3 -69 -32 l1 -28 -81 6
c-44 3 -148 9 -231 12 -127 6 -155 4 -182 -10 -21 -11 -57 -16 -110 -16 -82 0
-111 -13 -99 -44 4 -10 -20 -20 -101 -40 -59 -15 -126 -36 -150 -47 -42 -21
-68 -51 -57 -68 5 -9 -61 -131 -71 -131 -3 0 -2 5 1 10 9 15 -4 50 -19 50 -7
0 -20 8 -30 19 -9 10 -34 26 -56 36 -37 17 -59 17 -292 9 -231 -9 -257 -11
-293 -31 -28 -15 -62 -23 -112 -25 -56 -3 -77 -8 -95 -25 -13 -11 -38 -28 -56
-37 -22 -11 -35 -26 -38 -45 -7 -35 -49 -81 -73 -81 -10 0 -23 -6 -28 -12 -14
-18 -60 -160 -77 -238 -7 -36 -34 -144 -60 -240 -25 -96 -61 -247 -81 -335
-51 -230 -42 -212 -148 -282 -93 -62 -216 -128 -223 -120 -2 2 13 15 34 28 26
17 37 31 37 49 0 37 -31 31 -160 -28 -60 -27 -139 -60 -175 -71 -88 -29 -272
-60 -401 -68 -99 -5 -110 -4 -143 17 -30 18 -39 20 -51 10 -19 -16 -19 -34 1
-51 14 -12 14 -14 -5 -21 -12 -4 -71 -13 -132 -19 -88 -9 -126 -9 -179 1 -46
9 -123 11 -240 8 l-173 -5 7 116 c7 133 -2 161 -54 161 -39 0 -50 -23 -50
-102 0 -106 -15 -99 -38 19 -12 59 -28 158 -36 218 -21 151 -93 857 -101 982
-7 114 -13 105 78 118 46 6 48 6 38 -14 -14 -25 -5 -48 22 -57 30 -9 316 -7
427 5 81 8 98 7 113 -7 15 -14 19 -13 37 3 25 23 128 32 420 40 l215 5 -57
-21 c-31 -11 -76 -37 -99 -57 -36 -33 -41 -42 -41 -79 1 -56 17 -85 45 -81 18
2 22 10 22 43 0 50 7 60 58 87 34 18 67 23 177 28 123 7 143 11 227 44 51 20
101 36 111 36 29 0 48 27 35 49 -10 15 -1 19 74 36 47 10 91 24 99 32 11 12
19 11 51 -6 73 -37 113 -103 113 -186 l0 -45 -137 0 c-233 0 -395 -32 -621
-120 -154 -60 -315 -153 -389 -225 -50 -48 -54 -55 -43 -75 8 -15 19 -21 35
-18 14 3 26 -2 33 -12 16 -26 124 -45 252 -44 161 1 274 36 577 178 78 36 163
69 188 73 50 6 77 25 69 48 -18 45 -119 18 -411 -112 -31 -13 -5 115 29 147
12 11 19 27 16 38 -7 25 20 29 227 38 l150 7 10 -24 c14 -31 30 -34 52 -10 19
20 21 20 72 5 69 -20 93 -12 89 29 -3 30 -8 33 -64 51 l-61 19 -6 61 c-10 94
-25 134 -70 184 -50 54 -125 91 -252 122 l-89 22 -511 -11 c-737 -16 -844 -23
-1175 -81 -63 -11 -117 -20 -120 -20 -3 0 -4 19 -2 42 5 46 -13 68 -55 68 -29
0 -49 -32 -58 -92 -6 -49 -13 -56 -32 -37 -18 18 -51 5 -154 -60 -65 -40 -128
-70 -194 -92 -99 -31 -155 -69 -155 -102 0 -9 11 -29 25 -45 20 -23 23 -36 18
-65 -3 -21 -9 -37 -13 -37 -15 0 -22 -36 -30 -155 -5 -81 -4 -125 3 -137 9
-13 7 -21 -7 -37 -18 -20 -18 -21 0 -48 14 -22 19 -56 24 -158 4 -88 11 -141
22 -165 9 -19 19 -72 22 -118 8 -108 38 -186 91 -239 23 -23 47 -53 53 -67 6
-15 18 -26 25 -26 23 0 75 29 81 46 8 22 0 32 -38 48 -27 11 -35 22 -44 58
-16 64 -40 261 -43 353 l-3 80 48 75 c27 41 73 101 103 132 30 32 52 62 48 68
-3 5 32 28 77 51 46 23 86 47 90 53 6 8 8 7 8 -2 0 -7 14 -135 30 -285 37
-329 72 -562 103 -679 20 -74 21 -88 9 -93 -8 -3 -89 -8 -181 -11 -91 -3 -176
-7 -188 -10 -28 -5 -32 -48 -5 -59 9 -3 107 -5 217 -4 195 3 200 2 203 -18 3
-18 -4 -21 -59 -27 -34 -3 -129 -6 -212 -6 -142 0 -152 1 -197 26 -48 26 -73
61 -85 117 -7 33 -31 45 -51 25 -12 -12 -13 -23 -3 -68 15 -68 81 -138 154
-163 75 -26 406 -20 497 9 22 6 16 33 73 -376 63 -451 138 -821 207 -1009 26
-71 42 -87 81 -77 42 10 42 41 3 167 -43 136 -96 377 -131 590 -36 223 -105
727 -105 771 l0 38 80 0 c107 0 418 19 508 30 40 6 106 21 145 35 56 20 97 26
187 30 131 4 307 28 377 51 26 9 100 20 163 24 89 6 130 14 183 35 78 32 217
116 288 176 32 26 49 36 49 26 0 -21 31 -30 46 -15 12 12 22 104 24 202 0 33
2 37 15 26 8 -7 22 -10 30 -6 10 4 15 -1 15 -14 0 -24 15 -33 40 -25 16 5 20
15 20 49 0 24 9 95 20 157 11 63 36 205 56 317 38 223 45 246 77 277 12 11 31
33 42 48 23 32 122 75 263 113 87 24 109 26 243 22 82 -1 153 -8 158 -13 6 -6
14 -46 18 -90 8 -77 9 -80 33 -80 22 0 25 5 28 40 4 62 11 85 27 85 19 0 34
28 27 52 -4 18 -3 18 29 5 19 -8 33 -20 31 -28 -25 -102 -25 -210 -1 -291 5
-18 14 -65 19 -104 5 -39 21 -110 35 -158 14 -49 25 -93 25 -100 -1 -6 -34 57
-74 140 -71 147 -92 174 -115 151 -17 -17 -14 -32 28 -116 124 -247 149 -319
175 -526 32 -244 60 -311 257 -595 122 -177 127 -189 139 -327 14 -169 12
-444 -4 -534 -8 -44 -31 -113 -54 -163 -42 -88 -186 -329 -228 -379 -25 -29
-23 -51 4 -62 52 -20 299 380 336 544 12 54 16 128 16 333 0 398 0 397 -175
653 -130 191 -181 291 -209 415 -4 20 1 17 35 -20 21 -25 50 -66 64 -92 35
-67 150 -140 185 -118 7 4 31 2 52 -6 22 -7 76 -17 121 -20 45 -4 88 -11 95
-17 28 -22 164 0 347 57 99 31 215 63 259 70 87 16 107 27 90 54 -16 24 -90
18 -234 -20 -63 -17 -135 -34 -160 -39 -25 -4 -67 -15 -95 -24 -35 -12 -86
-16 -174 -16 -181 1 -256 16 -271 57 -7 17 -17 24 -35 24 -24 0 -30 -9 -26
-37 3 -19 -8 -16 -47 13 -40 31 -71 94 -72 146 0 32 5 40 31 53 35 19 38 58 4
63 -27 3 -86 -34 -92 -59 -9 -32 -20 -22 -42 34 -25 69 -37 132 -23 123 17
-10 42 23 42 56 0 21 -6 31 -20 35 -20 5 -28 23 -10 23 13 0 13 61 0 95 -6 15
-19 29 -30 32 -14 4 -23 22 -35 75 -49 214 -55 417 -14 446 23 16 24 30 3 53
-15 17 -15 21 -2 41 9 13 13 36 11 54 -7 45 14 112 37 119 22 7 28 50 8 59
-16 6 18 36 40 36 7 0 44 14 82 30 54 24 83 30 137 30 37 0 104 7 148 15 44 9
154 20 245 26 197 12 212 12 246 -1 15 -6 35 -8 44 -5 10 3 94 -8 186 -25 205
-36 413 -43 446 -13 18 16 25 15 131 -10 133 -33 147 -33 154 -7 7 25 25 25
94 1 76 -26 136 -58 147 -78 5 -9 20 -17 33 -18 17 -1 35 -21 72 -81 60 -97
77 -116 95 -109 8 3 12 0 8 -7 -2 -7 -19 -56 -37 -108 -27 -82 -32 -110 -33
-200 -1 -128 7 -170 39 -202 l24 -25 -53 -94 c-77 -134 -111 -169 -265 -269
-191 -125 -260 -177 -274 -208 -6 -15 -12 -29 -14 -31 -1 -2 -19 -5 -40 -7
-21 -1 -119 -27 -219 -57 -215 -66 -415 -116 -497 -125 -66 -8 -91 -28 -68
-56 19 -22 90 -20 202 5 74 17 96 19 112 10 15 -10 30 -10 71 0 28 6 56 15 61
19 27 21 374 143 402 142 21 -1 37 4 45 16 7 10 60 37 118 61 159 64 195 83
195 105 0 41 -29 42 -114 3 -45 -20 -81 -35 -81 -33 0 3 30 23 68 47 37 23 83
55 103 70 43 34 55 36 64 10 14 -44 65 -31 65 16 0 28 57 129 102 181 15 18
28 39 28 46 0 7 19 53 42 102 l43 89 0 145 0 145 -25 0 c-25 0 -25 0 -30 -117
-3 -64 -8 -120 -12 -124 -17 -16 -7 231 11 309 10 43 20 79 22 80 2 1 19 8 37
14 25 9 32 9 32 -2 0 -17 31 -28 44 -15 5 5 16 10 24 10 17 0 99 37 106 49 3
4 26 14 51 21 32 9 47 19 51 35 6 25 83 78 230 158 164 90 417 254 466 304
l27 27 3 -168 c3 -150 5 -170 21 -180 15 -9 21 -7 33 8 11 16 14 60 14 212 0
106 5 216 11 244 9 41 8 57 -4 83 -12 26 -13 53 -6 142 8 111 3 135 -27 135
-7 0 -18 -8 -23 -19z m-2166 -616 c108 -25 87 -33 -40 -14 -52 8 -75 16 -75
25 0 17 -6 18 115 -11z m-3118 -116 c70 -12 80 -24 29 -33 -25 -5 -44 0 -77
19 -49 28 -43 30 48 14z m-249 -15 c107 -22 125 -37 37 -30 -113 10 -211 29
-189 37 30 12 69 10 152 -7z m-413 -26 c6 -13 19 -24 30 -26 88 -14 57 -21
-151 -32 -104 -6 -202 -13 -219 -16 l-30 -6 31 32 c46 47 120 69 234 70 89 0
96 -1 105 -22z m-417 -37 c-41 -62 -68 -65 -157 -19 -42 22 -82 33 -124 37
-62 5 -62 5 48 17 61 6 145 12 188 13 l77 1 -32 -49z m654 -11 c46 -11 130
-23 187 -27 l103 -6 -63 -24 c-35 -13 -81 -28 -103 -33 -34 -7 -39 -6 -44 12
-5 21 -67 52 -126 63 -19 4 -37 13 -40 21 -7 17 -13 18 86 -6z m-898 -49 c6
-10 -123 -21 -246 -21 -88 0 -130 16 -61 23 76 8 302 7 307 -2z m5506 -46
c-25 -19 -36 -22 -42 -12 -13 20 -9 25 20 30 54 8 55 7 22 -18z m-6140 -97 c0
-51 3 -102 6 -113 4 -16 -2 -23 -29 -33 -19 -7 -41 -10 -49 -7 -14 6 -170 -60
-310 -131 -62 -31 -106 -47 -65 -23 13 8 17 23 17 67 0 93 14 124 93 207 l72
75 105 24 c58 14 117 25 133 25 l27 1 0 -92z m1553 -248 c-9 -25 -16 -74 -17
-110 -1 -78 0 -77 -151 -78 -115 -1 -196 9 -177 21 6 5 12 16 12 25 0 24 113
92 241 146 57 24 105 43 106 42 1 -1 -5 -22 -14 -46z m-1526 -82 c-3 -8 -6 -5
-6 6 -1 11 2 17 5 13 3 -3 4 -12 1 -19z m2520 -140 c-3 -8 -6 -5 -6 6 -1 11 2
17 5 13 3 -3 4 -12 1 -19z m-2874 -115 c-31 -43 -71 -109 -89 -148 l-33 -70
-1 107 0 107 83 41 c45 22 85 40 89 40 4 0 -18 -35 -49 -77z m2864 55 c-3 -8
-6 -5 -6 6 -1 11 2 17 5 13 3 -3 4 -12 1 -19z m-10 -60 c-3 -7 -5 -2 -5 12 0
14 2 19 5 13 2 -7 2 -19 0 -25z m-10 -60 c-3 -7 -5 -2 -5 12 0 14 2 19 5 13 2
-7 2 -19 0 -25z"/>
<path d="M17752 13018 c-8 -8 -12 -49 -12 -117 0 -337 -55 -751 -165 -1251
-20 -91 -38 -175 -41 -187 -2 -13 -10 -20 -17 -17 -31 12 -47 -20 -57 -118
-18 -162 -63 -291 -182 -518 -123 -237 -296 -478 -441 -617 -50 -49 -72 -63
-95 -63 -28 0 -42 -14 -42 -41 0 -20 52 -30 88 -18 69 23 315 296 454 504 77
116 208 379 247 497 17 51 36 126 43 166 10 57 16 72 29 72 26 0 31 12 66 170
17 80 43 195 57 255 33 143 71 367 97 580 26 213 39 676 19 700 -15 18 -32 19
-48 3z"/>
<path d="M16791 12726 c-18 -22 -10 -97 12 -110 15 -9 22 -7 37 12 l18 22 28
-32 c73 -87 114 -231 114 -403 0 -122 -11 -177 -64 -314 -55 -143 -59 -221
-11 -221 26 0 35 17 35 64 0 18 20 86 45 153 48 131 65 212 65 315 0 206 -64
393 -165 487 -47 43 -92 54 -114 27z"/>
<path d="M12496 12659 c-109 -21 -252 -43 -317 -48 -122 -10 -170 -26 -189
-60 -25 -47 2 -108 35 -81 8 7 15 21 15 31 0 26 37 39 108 39 82 0 171 14 394
62 198 42 223 53 197 84 -15 18 -12 19 -243 -27z"/>
<path d="M12803 12425 c-300 -38 -767 -155 -956 -239 -49 -22 -58 -30 -55 -49
5 -36 46 -32 185 16 70 25 202 63 293 86 91 23 174 45 185 48 17 5 16 1 -7
-20 -30 -28 -53 -95 -71 -206 l-12 -73 -140 5 c-163 5 -233 23 -275 69 -35 38
-60 32 -60 -12 0 -67 92 -115 266 -139 112 -16 329 -14 474 4 189 23 574 92
671 120 57 16 98 22 122 18 24 -4 37 -2 38 6 1 6 2 16 3 22 0 6 19 19 41 28
56 23 65 29 65 52 0 30 -26 34 -102 14 -38 -10 -70 -16 -72 -14 -1 2 -30 41
-64 86 -34 44 -78 95 -99 112 -88 72 -220 93 -430 66z m298 -81 c30 -9 66 -25
81 -36 29 -20 153 -167 147 -172 -10 -10 -259 -59 -454 -90 -121 -20 -235 -39
-254 -42 l-33 -5 6 38 c19 106 48 191 67 196 26 7 26 53 -1 62 -11 3 -20 10
-20 15 0 10 27 17 130 29 190 24 263 25 331 5z"/>
<path d="M16577 12164 c-4 -4 -7 -32 -7 -61 0 -39 19 -113 70 -271 38 -119 81
-257 95 -305 19 -64 35 -99 59 -124 52 -57 91 -26 47 36 -11 15 -36 83 -56
152 -20 68 -61 200 -92 294 -31 93 -59 194 -62 225 -5 45 -10 56 -26 58 -12 2
-24 0 -28 -4z"/>
<path d="M10780 12109 c-50 -97 -61 -176 -70 -484 -7 -259 -11 -309 -39 -470
-61 -348 -89 -420 -236 -605 -197 -249 -259 -409 -253 -659 3 -104 6 -126 20
-135 30 -18 37 4 42 134 9 230 65 373 236 598 163 215 191 281 240 561 47 273
51 321 59 616 8 279 8 280 39 370 23 65 28 93 20 102 -19 23 -37 14 -58 -28z"/>
<path d="M16458 11324 c-33 -17 -44 -53 -27 -86 6 -12 32 -49 56 -80 125 -164
125 -276 -1 -449 -48 -66 -56 -93 -30 -103 28 -11 31 -7 92 73 80 106 105 173
100 271 -4 89 -33 159 -102 249 -26 33 -46 63 -46 67 0 4 7 12 16 19 11 8 14
19 10 33 -8 25 -30 27 -68 6z"/>
<path d="M15791 10761 c-6 -11 -11 -39 -11 -64 0 -46 42 -181 65 -207 7 -8 33
-44 57 -80 24 -36 54 -79 67 -97 l23 -31 -21 -74 c-12 -40 -28 -89 -36 -108
-7 -19 -39 -115 -70 -213 -52 -165 -102 -296 -235 -617 -70 -168 -67 -163 -91
-149 -25 13 -64 -9 -75 -43 -23 -73 -239 -502 -421 -836 -46 -85 -80 -159 -77
-165 29 -52 35 -50 82 26 83 134 376 671 447 820 59 125 73 147 92 147 18 0
30 14 57 68 54 108 205 468 244 585 27 78 41 106 51 102 27 -11 41 16 41 79 0
54 17 141 51 269 10 37 11 38 28 23 10 -9 28 -18 40 -21 11 -2 35 -15 53 -28
80 -60 126 -73 228 -66 14 1 43 -6 65 -14 43 -17 171 -22 193 -8 8 5 12 17 10
27 -3 16 -15 20 -88 24 -95 7 -146 27 -160 65 -6 15 -17 25 -29 25 -34 0 -242
260 -257 320 -4 14 -12 30 -20 36 -17 13 -34 58 -34 89 0 16 7 25 24 29 47 12
39 66 -10 66 -12 0 -35 -11 -51 -24 -24 -21 -27 -31 -27 -79 1 -35 9 -72 24
-102 22 -46 22 -50 8 -109 l-14 -61 -57 113 c-32 62 -64 115 -72 118 -19 8
-38 69 -39 129 -1 43 -4 50 -23 53 -14 2 -26 -4 -32 -17z m363 -431 c32 -41
84 -103 117 -138 44 -47 54 -62 37 -57 -40 12 -128 68 -185 119 -52 46 -54 51
-48 85 8 45 16 73 20 69 2 -2 28 -37 59 -78z"/>
<path d="M9688 10250 c-20 -11 -46 -33 -57 -48 -25 -35 -98 -191 -134 -287
-82 -216 -106 -510 -72 -885 28 -306 38 -345 85 -333 29 8 32 31 16 134 -31
197 -40 331 -40 554 1 318 23 425 139 670 50 108 65 128 109 150 25 12 29 58
6 62 -8 1 -32 -6 -52 -17z"/>
<path d="M12560 10095 c-26 -32 -5 -45 72 -45 95 0 200 -29 309 -87 98 -51
217 -147 269 -215 88 -116 167 -283 201 -422 24 -99 39 -370 39 -708 0 -234 0
-237 22 -249 18 -10 24 -8 40 11 21 26 22 66 8 490 -13 390 -33 494 -139 715
-84 173 -178 286 -324 384 -67 46 -200 106 -273 125 -81 21 -207 21 -224 1z"/>
<path d="M10341 9581 c-24 -44 140 -196 296 -275 119 -60 280 -73 608 -51 126
8 233 19 238 24 5 5 7 17 5 27 -3 17 -14 19 -98 19 -52 -1 -185 -5 -295 -9
-142 -6 -222 -5 -275 3 -130 20 -262 95 -380 215 -35 36 -70 66 -77 66 -7 0
-17 -9 -22 -19z"/>
<path d="M8693 9113 c-4 -15 -7 -50 -6 -78 2 -100 195 -530 238 -530 36 0 28
36 -39 174 -98 204 -138 321 -134 396 3 59 2 60 -24 63 -23 3 -29 -2 -35 -25z"/>
<path d="M12620 8495 c-32 -34 -168 -121 -238 -152 -32 -14 -97 -34 -147 -44
-82 -18 -119 -19 -395 -13 -207 4 -332 2 -390 -5 -47 -7 -143 -14 -215 -18
-154 -7 -211 5 -335 67 -120 60 -183 74 -315 67 -124 -7 -151 -12 -159 -34
-13 -32 11 -41 102 -35 l87 4 1 -153 c1 -132 5 -168 27 -252 37 -138 86 -236
144 -287 51 -44 181 -112 248 -128 65 -16 409 -35 565 -31 l145 4 200 102
c135 70 236 129 310 184 197 146 257 218 344 418 27 61 65 133 85 160 40 54
42 63 22 80 -21 18 -38 5 -86 -66 -58 -85 -97 -130 -136 -154 -47 -29 -55 -25
-52 26 3 44 5 46 66 82 75 44 202 149 202 166 0 18 -21 37 -40 37 -9 0 -27
-11 -40 -25z m-1792 -206 c65 -28 69 -32 78 -72 7 -31 14 -42 28 -42 14 0 41
27 41 42 0 1 25 -5 55 -13 30 -8 94 -14 143 -14 l89 0 -4 -36 c-2 -26 2 -40
14 -47 23 -15 48 8 48 43 0 15 6 33 14 39 8 7 73 14 157 18 l144 6 0 -54 c0
-51 1 -54 25 -54 23 0 25 3 25 53 l0 52 65 0 c36 0 109 -3 163 -7 92 -6 97 -7
97 -29 0 -19 23 -54 35 -54 12 0 35 35 35 54 0 21 6 24 68 30 65 7 169 28 205
41 14 6 17 1 17 -33 l0 -40 -77 -16 c-43 -9 -88 -19 -101 -22 -37 -8 -26 -48
14 -52 38 -4 243 42 284 63 l31 16 -17 -33 c-91 -177 -268 -323 -584 -481
l-185 -92 -195 -3 c-108 -1 -265 3 -350 11 -150 13 -159 15 -243 55 -135 66
-177 118 -231 291 -26 83 -45 201 -32 201 4 0 41 -13 84 -29 75 -28 151 -39
467 -65 33 -3 125 -17 206 -32 l146 -27 84 21 c46 12 109 29 139 37 30 8 93
16 140 16 47 1 114 4 150 8 55 5 65 9 67 26 2 11 -4 28 -12 39 -13 17 -19 18
-75 7 -37 -8 -91 -9 -143 -5 -95 7 -170 -5 -255 -43 -52 -23 -66 -25 -152 -20
-52 3 -142 12 -200 21 -58 9 -188 23 -290 33 -157 14 -195 21 -252 45 -37 15
-78 28 -92 28 -24 0 -26 4 -26 43 0 23 3 59 7 81 6 38 6 38 45 32 21 -4 69
-20 106 -37z"/>
<path d="M9205 8183 c-27 -26 -11 -74 76 -237 220 -409 357 -594 542 -730 58
-43 85 -56 105 -54 22 2 28 9 30 34 3 28 -4 36 -80 91 -150 110 -243 218 -399
468 -95 151 -209 350 -209 364 0 6 6 20 13 32 10 17 9 22 -7 35 -26 19 -51 18
-71 -3z"/>
<path d="M14961 7998 c-9 -25 -27 -251 -41 -513 -19 -342 -29 -465 -44 -493
-42 -81 -70 -267 -116 -772 -21 -239 -42 -520 -45 -625 -4 -146 -10 -217 -29
-306 -31 -150 -50 -327 -37 -343 10 -12 -39 -154 -98 -279 -17 -37 -54 -118
-80 -180 -107 -248 -103 -239 -119 -216 -26 37 -43 18 -83 -94 -50 -143 -200
-433 -212 -412 -14 25 -36 18 -133 -45 -122 -78 -286 -160 -321 -160 -16 0
-68 -20 -117 -45 l-90 -45 -12 29 c-25 59 -63 49 -124 -34 -22 -30 -44 -55
-48 -55 -5 0 -114 -18 -243 -39 -128 -22 -277 -43 -329 -46 -52 -4 -115 -9
-140 -11 -341 -31 -571 -45 -736 -43 -105 1 -196 -1 -203 -5 -7 -5 -10 -14 -7
-22 6 -15 -21 -19 -42 -6 -9 6 -4 14 15 29 19 13 58 24 123 32 52 6 221 33
375 58 250 42 294 46 410 44 389 -9 417 -8 453 18 23 16 32 30 30 44 -4 28
-34 33 -60 10 -27 -24 -163 -30 -278 -12 -149 23 -288 16 -555 -31 -355 -62
-477 -79 -612 -86 -121 -7 -123 -7 -180 22 -32 16 -60 30 -62 31 -2 2 4 12 13
22 22 25 13 56 -20 74 -14 7 -31 24 -37 38 -10 20 -22 25 -67 29 -65 6 -126
41 -302 172 -279 208 -435 406 -455 578 -8 64 -9 65 -38 65 -27 0 -31 -4 -35
-35 -5 -33 -6 -32 -52 61 -56 114 -67 149 -45 149 8 0 25 8 37 18 l23 19 -23
31 c-25 33 -48 39 -80 22 -17 -9 -24 -4 -46 30 l-27 41 21 22 c22 23 22 29 22
366 0 451 23 867 59 1066 11 59 -3 80 -60 90 -69 13 -73 -5 -89 -363 -12 -302
-12 -1207 1 -1235 9 -19 7 -30 -10 -58 -33 -55 -30 -212 9 -364 29 -118 42
-145 66 -145 27 0 32 32 13 88 -10 30 -25 90 -34 134 -16 88 -21 248 -6 233 5
-6 35 -77 66 -160 112 -295 200 -446 243 -419 14 9 24 0 66 -60 90 -129 180
-229 259 -288 83 -61 117 -71 139 -39 13 18 16 17 75 -22 l62 -40 -56 -61
c-93 -104 -169 -287 -208 -506 -17 -97 -48 -202 -131 -445 -46 -136 -58 -183
-58 -233 0 -72 20 -106 52 -86 13 9 16 22 13 59 -2 38 9 85 50 212 l53 164 18
-53 c18 -56 59 -101 87 -96 26 5 24 36 -5 71 l-27 32 6 160 c5 150 8 166 41
262 57 162 93 230 128 242 23 8 29 16 26 33 -2 19 -9 23 -35 23 -18 0 -33 2
-33 5 0 15 63 103 99 139 l40 40 63 -29 c60 -29 63 -32 65 -68 1 -47 185 -425
304 -627 45 -77 118 -203 161 -280 43 -77 86 -147 96 -155 10 -8 33 -37 52
-65 80 -119 121 -165 145 -165 13 0 27 -5 31 -11 3 -6 18 -9 33 -6 20 4 30 -1
46 -21 63 -87 210 -265 222 -269 8 -3 22 2 31 11 15 15 15 18 -3 40 -11 13
-73 94 -137 178 -134 176 -143 185 -195 202 -34 12 -51 33 -181 227 -184 274
-310 485 -406 677 l-76 152 37 0 c21 0 68 3 106 7 60 5 67 4 61 -11 -3 -9 -3
-28 0 -42 12 -47 108 -74 322 -90 l91 -6 -47 -63 c-26 -35 -69 -99 -96 -144
-27 -44 -50 -78 -52 -76 -2 2 10 36 27 76 28 66 29 75 16 89 -25 24 -47 1 -82
-87 -51 -124 -70 -207 -54 -227 20 -24 54 -19 82 12 14 15 61 85 105 155 43
71 91 143 106 160 25 30 27 31 28 10 0 -20 -39 -178 -112 -451 -21 -78 -18
-116 8 -126 33 -12 60 24 166 215 105 189 148 261 148 247 0 -4 -18 -65 -41
-135 -118 -371 -150 -533 -114 -573 10 -11 31 -20 48 -20 49 0 92 58 184 245
45 94 83 167 83 163 0 -4 -18 -76 -40 -160 -22 -84 -43 -181 -46 -215 -5 -48
-11 -62 -25 -66 -27 -7 -25 -65 4 -108 12 -19 59 -60 102 -92 93 -67 390 -219
419 -215 26 4 33 38 11 54 -15 11 -13 15 17 38 171 131 434 309 527 355 51 26
62 36 59 54 -2 14 -12 24 -28 28 -52 12 -68 21 -73 40 -6 24 -37 24 -68 1 -13
-10 -41 -31 -63 -47 l-38 -29 36 73 c45 89 166 354 291 637 52 117 105 234
120 260 30 56 29 54 -38 -121 -78 -200 -76 -305 3 -305 36 0 110 49 156 104
52 63 63 39 15 -33 -50 -74 -73 -119 -66 -131 3 -5 -32 -78 -79 -162 -46 -84
-92 -172 -101 -196 -16 -40 -16 -44 -1 -61 16 -17 14 -21 -22 -68 -22 -27 -59
-66 -83 -87 -39 -33 -48 -36 -83 -30 -62 10 -72 -32 -14 -62 39 -20 76 -11
132 31 51 39 166 177 166 200 0 8 14 30 30 48 32 37 37 56 19 74 -12 12 -13
12 130 266 39 70 126 239 192 375 215 443 257 525 360 697 94 159 289 539 289
564 0 14 17 15 25 1 3 -6 9 -10 13 -10 23 1 33 23 36 76 3 45 22 106 84 260
128 321 209 606 182 640 -8 8 -21 12 -31 9 -27 -9 -24 8 4 20 21 9 22 16 24
125 2 63 7 202 12 309 10 195 17 225 48 200 6 -6 24 -9 40 -7 24 3 29 9 37 45
10 44 27 53 97 53 22 0 32 6 39 26 6 14 10 27 10 30 0 2 -31 4 -70 4 l-70 0 0
60 c0 54 2 60 23 64 12 3 108 7 212 10 365 11 410 19 373 63 -10 12 -56 13
-306 7 l-295 -7 7 84 c3 46 9 130 12 187 4 60 11 102 17 102 6 0 81 -26 166
-57 148 -55 154 -58 116 -63 -34 -4 -40 -8 -40 -30 0 -20 7 -26 40 -33 74 -16
239 -69 338 -108 53 -21 99 -39 101 -39 3 0 11 7 19 15 13 12 26 7 103 -44 49
-33 122 -93 163 -135 40 -42 81 -76 90 -76 25 0 41 20 41 51 0 57 -191 215
-365 302 -128 63 -573 239 -732 289 l-43 13 0 55 c0 127 22 482 35 570 7 52
25 132 40 177 32 101 25 127 -32 121 l-34 -4 5 45 c3 25 8 81 12 124 3 42 10
80 15 83 13 8 11 78 -3 92 -19 19 -48 14 -57 -10z m-114 -1795 c-3 -10 -5 -4
-5 12 0 17 2 24 5 18 2 -7 2 -21 0 -30z m-10 -135 c-2 -13 -4 -3 -4 22 0 25 2
35 4 23 2 -13 2 -33 0 -45z m-855 -2460 c-33 -57 -83 -149 -111 -205 -39 -78
-56 -102 -73 -105 -17 -2 -25 -13 -32 -43 -15 -64 -279 -385 -316 -385 -22 0
-2 66 109 347 39 100 74 201 77 225 l6 44 112 57 c61 31 149 84 195 117 46 33
86 58 89 55 2 -2 -23 -50 -56 -107z m-557 -287 c-24 -49 -77 -161 -116 -248
-105 -233 -367 -799 -399 -864 -16 -30 -36 -61 -45 -69 -15 -12 -16 -11 -10
16 35 148 174 498 384 959 119 261 108 243 171 270 30 12 56 23 58 24 1 0 -18
-39 -43 -88z m-313 -79 c-21 -33 -74 -138 -117 -234 -123 -270 -220 -453 -379
-715 -81 -134 -150 -243 -152 -243 -7 0 -2 18 91 275 101 279 140 379 239 601
42 95 76 185 76 202 0 40 -23 58 -55 44 -49 -22 -168 -233 -262 -462 -87 -211
-291 -600 -315 -600 -48 0 88 526 248 965 l44 120 173 32 c94 18 219 39 277
48 58 8 119 19 135 24 17 4 31 7 33 6 2 -2 -14 -30 -36 -63z m-782 -259 c-82
-208 -169 -411 -227 -528 -44 -88 -104 -188 -109 -182 -10 9 42 215 112 448
88 294 93 339 35 339 -45 0 -85 -50 -201 -250 -40 -69 -69 -116 -66 -105 22
80 66 268 71 306 4 25 2 62 -3 81 l-9 34 141 13 c118 10 327 36 332 40 1 0
-33 -88 -76 -196z m569 -413 c-83 -197 -129 -337 -136 -414 -6 -62 -5 -66 24
-95 l30 -30 -26 -24 c-37 -33 -75 -47 -131 -47 -27 0 -52 -5 -55 -10 -10 -17
5 -50 23 -50 27 -1 -29 -29 -58 -30 -14 0 -38 7 -54 15 -15 8 -37 15 -48 15
-20 0 -20 0 -1 18 11 9 34 35 50 57 41 54 337 549 393 657 25 47 46 85 47 84
1 -1 -25 -67 -58 -146z m-348 -37 c-12 -20 -14 -14 -5 12 4 9 9 14 11 11 3 -2
0 -13 -6 -23z m-82 -222 c-39 -107 -79 -228 -90 -269 -10 -42 -20 -77 -22 -78
-2 -2 -27 13 -56 32 l-53 36 35 36 c42 44 121 176 196 330 30 61 56 110 58
109 1 -2 -29 -90 -68 -196z"/>
<path d="M14855 7501 c-14 -24 -55 -237 -61 -322 -9 -126 -1 -169 31 -169 30
0 33 12 34 135 0 100 6 140 36 269 9 38 14 75 11 82 -6 16 -42 19 -51 5z"/>
<path d="M10154 7194 c-39 -155 159 -649 338 -839 63 -68 90 -78 111 -44 8 14
-2 29 -54 81 -73 73 -142 185 -210 338 -80 180 -112 284 -118 390 -6 94 -6 95
-33 98 -22 3 -29 -2 -34 -24z"/>
<path d="M9864 6879 c-49 -33 -118 -85 -154 -114 -130 -106 -335 -331 -464
-508 -43 -58 -54 -67 -81 -67 -98 0 -279 -80 -375 -167 -177 -160 -376 -490
-481 -798 l-38 -110 -39 85 c-37 80 -54 129 -81 227 -14 50 -40 63 -78 38 -23
-15 -25 -22 -19 -61 10 -73 44 -163 118 -309 64 -127 72 -149 82 -230 10 -83
13 -90 34 -93 17 -3 25 2 29 18 7 25 60 -61 265 -425 147 -260 253 -426 321
-503 38 -42 47 -60 47 -90 1 -20 5 -57 10 -82 4 -25 7 -46 6 -48 -5 -4 -148
232 -300 496 -81 139 -167 280 -191 314 -25 33 -50 78 -55 100 -9 32 -15 39
-33 36 -16 -2 -23 -11 -25 -33 -3 -34 29 -102 125 -260 144 -237 308 -532 309
-555 1 -14 11 -45 23 -70 20 -42 37 -63 101 -123 53 -50 105 -136 141 -235 55
-151 111 -242 148 -242 31 0 38 28 16 64 -11 17 -36 64 -57 105 l-37 75 36 12
c20 7 40 11 44 8 4 -2 54 -57 111 -122 227 -258 420 -513 565 -747 158 -254
205 -308 305 -350 66 -27 108 -17 108 26 0 5 -22 20 -50 34 -27 14 -65 38 -83
55 -37 32 -47 47 -219 310 -197 301 -436 611 -712 920 -7 8 -54 70 -104 137
-50 66 -96 124 -101 128 -23 13 -11 32 17 27 42 -6 65 21 57 67 -10 57 -15 69
-32 75 -18 7 -43 -10 -43 -31 0 -8 -4 -11 -10 -8 -18 11 -11 84 11 115 22 29
22 29 3 57 -15 22 -19 46 -19 113 0 81 -1 85 -22 88 -26 4 -43 -28 -43 -79 l0
-31 -51 56 c-178 195 -414 565 -474 743 -36 111 -38 120 -15 126 45 12 13 67
-39 67 -20 0 -19 1 3 68 92 268 304 615 469 769 42 39 94 75 139 97 66 31 148
59 148 51 0 -2 -49 -82 -109 -177 -290 -467 -369 -627 -390 -791 -7 -57 -6
-77 5 -94 31 -49 94 -16 94 48 0 111 106 336 320 683 206 333 215 346 250 346
23 0 31 5 36 25 3 14 2 31 -4 38 -12 14 53 98 218 284 120 134 243 244 376
337 102 72 113 84 96 120 -19 42 -56 34 -158 -35z m-924 -2909 c0 -15 -11 -1
-45 55 -16 28 -15 28 14 -5 17 -19 31 -42 31 -50z m185 -524 c21 -27 32 -47
24 -44 -17 5 -79 85 -79 101 0 12 -1 13 55 -57z"/>
<path d="M13667 6585 c-108 -112 -197 -209 -197 -214 0 -5 -28 -29 -62 -53
-214 -152 -670 -351 -837 -366 -72 -7 -76 -8 -76 -32 0 -19 6 -25 33 -31 18
-4 35 -9 38 -12 8 -7 -293 -122 -381 -146 -114 -29 -272 -45 -395 -37 -168 10
-336 58 -342 98 -7 50 -68 44 -68 -6 0 -53 52 -88 197 -133 85 -27 96 -27 313
-27 212 0 231 2 320 26 125 35 406 148 498 200 43 25 75 50 78 62 4 16 31 31
107 60 160 61 291 121 440 204 126 69 147 85 228 170 49 52 89 102 89 111 0 9
56 76 125 150 69 73 125 141 125 151 0 14 -18 30 -34 30 -1 0 -90 -92 -199
-205z"/>
<path d="M9539 6275 c-73 -50 -193 -170 -288 -290 -94 -118 -247 -353 -291
-447 -55 -119 -75 -241 -44 -272 19 -20 25 -20 49 -2 14 10 21 33 26 86 10 95
56 190 178 372 161 242 310 410 426 483 80 51 90 68 59 99 -24 24 -43 19 -115
-29z"/>
<path d="M10799 6054 c-20 -24 21 -92 95 -162 69 -64 142 -104 231 -127 76
-19 114 -19 122 1 9 24 -16 39 -99 58 -117 27 -243 119 -292 215 -18 34 -37
39 -57 15z"/>
<path d="M15985 6025 c-48 -51 -60 -110 -134 -680 -87 -665 -104 -915 -63
-915 5 0 2 -53 -5 -117 -32 -280 -51 -518 -42 -535 13 -23 52 -33 78 -18 25
13 24 37 10 -254 -9 -196 -13 -227 -34 -276 -13 -30 -35 -102 -50 -160 -37
-148 -129 -465 -172 -592 -30 -89 -34 -110 -23 -123 36 -44 64 -1 120 190 40
132 44 142 61 132 28 -17 44 6 59 83 27 147 31 160 50 160 36 0 43 28 57 213
8 111 23 223 37 287 14 58 32 143 41 190 10 46 22 96 27 110 18 47 26 114 17
132 -11 21 -44 24 -56 6 -4 -7 -13 -33 -19 -58 -10 -40 -12 -30 -13 95 -1 157
14 439 30 560 8 64 15 85 35 103 25 24 28 31 18 56 -8 20 -43 21 -71 1 -21
-15 -22 -14 -17 17 2 18 13 121 24 228 48 462 144 1017 189 1095 10 17 16 38
14 47 -5 19 -37 33 -54 23 -6 -4 -17 2 -25 14 -22 31 -52 26 -89 -14z"/>
<path d="M16362 5290 c-24 -5 -60 -17 -80 -27 -29 -14 -37 -24 -37 -45 1 -24
-5 -28 -46 -38 -51 -12 -68 -35 -46 -57 12 -12 27 -12 103 1 49 9 172 18 274
22 217 8 184 15 630 -127 939 -299 1112 -360 1353 -480 256 -129 422 -242 642
-439 265 -237 430 -470 698 -985 71 -137 154 -293 185 -345 51 -89 240 -369
305 -452 34 -45 69 -50 92 -14 20 30 23 24 -106 218 -147 220 -169 257 -339
588 -250 487 -400 716 -605 928 -406 420 -783 636 -1525 876 -1006 324 -1344
409 -1498 376z"/>
<path d="M7885 4614 c-181 -21 -272 -44 -540 -131 -399 -130 -825 -316 -1090
-476 -281 -169 -634 -477 -885 -771 -396 -466 -624 -908 -779 -1512 -89 -351
-119 -558 -128 -894 -6 -250 9 -574 28 -597 6 -7 21 -13 33 -13 49 1 48 -5 51
371 4 476 26 679 115 1046 156 646 413 1132 860 1628 190 212 468 453 690 600
245 163 702 374 1115 515 236 80 373 116 525 136 69 9 131 21 138 26 15 13 16
50 0 66 -11 11 -64 13 -133 6z"/>
<path d="M14624 3705 c-9 -23 2 -55 45 -125 21 -36 37 -67 35 -69 -8 -9 -105
94 -131 137 -19 32 -31 42 -47 40 -17 -2 -21 -9 -20 -40 1 -30 -2 -38 -16 -38
-10 0 -21 -8 -26 -17 -4 -10 -8 -106 -9 -213 0 -186 -2 -199 -28 -275 -37
-104 -84 -190 -160 -291 -57 -76 -63 -81 -75 -63 -27 39 -41 27 -158 -137 -31
-44 -82 -108 -112 -144 -125 -145 -141 -159 -261 -216 -63 -30 -137 -61 -165
-69 -58 -17 -96 -49 -96 -81 0 -31 29 -39 54 -15 12 10 41 25 66 31 25 7 63
21 85 33 22 11 56 22 76 23 24 1 60 18 108 50 39 27 71 52 71 56 0 20 183 222
250 275 177 141 340 382 390 579 16 63 20 111 20 255 0 98 4 180 8 183 5 3 37
-24 73 -60 35 -36 96 -88 136 -115 96 -65 133 -127 273 -449 66 -154 79 -177
107 -190 22 -11 40 -33 63 -80 79 -161 188 -338 213 -346 29 -9 47 14 47 61 0
56 8 75 30 75 51 0 20 52 -38 65 -25 5 -33 3 -37 -9 -3 -9 -7 -24 -11 -33 -4
-13 -16 1 -46 52 -103 178 -187 364 -294 656 -89 243 -123 299 -182 299 -14 0
-26 -8 -31 -21 -6 -19 -17 -8 -75 85 -37 59 -71 118 -76 132 -11 27 -47 33
-56 9z m248 -277 c15 -12 68 -126 68 -145 0 -11 -60 85 -60 95 0 5 -9 17 -20
27 -33 30 -22 49 12 23z"/>
<path d="M10376 2423 c-30 -46 -43 -102 -48 -207 -2 -65 0 -80 14 -89 29 -19
48 8 48 67 0 76 19 166 42 198 24 34 20 62 -9 66 -16 2 -29 -7 -47 -35z"/>
</g>
</svg>
