<svg xmlns="http://www.w3.org/2000/svg" xmlns:xlink="http://www.w3.org/1999/xlink" width="1080" zoomAndPan="magnify" viewBox="0 0 810 809.999993" height="1080" preserveAspectRatio="xMidYMid meet" version="1.0"><defs><g/><clipPath id="dbbcf089c4"><path d="M 401.078125 185 L 404.828125 185 L 404.828125 557 L 401.078125 557 Z M 401.078125 185 " clip-rule="nonzero"/></clipPath><clipPath id="0b4cf71f39"><path d="M 354.734375 248.625 L 455.265625 248.625 L 455.265625 484.125 L 354.734375 484.125 Z M 354.734375 248.625 " clip-rule="nonzero"/></clipPath><clipPath id="ce325a4ea2"><path d="M 456.109375 252.277344 L 503.359375 252.277344 L 503.359375 481.855469 L 456.109375 481.855469 Z M 456.109375 252.277344 " clip-rule="nonzero"/></clipPath><clipPath id="231c58dd13"><path d="M 370.195312 175 L 397 175 L 397 248.996094 L 370.195312 248.996094 Z M 370.195312 175 " clip-rule="nonzero"/></clipPath></defs><g clip-path="url(#dbbcf089c4)"><path fill="#40ac70" d="M 404.964844 185.191406 L 404.964844 556.546875 L 401.066406 556.546875 L 401.066406 185.191406 L 404.964844 185.191406 " fill-opacity="1" fill-rule="nonzero"/></g><g clip-path="url(#0b4cf71f39)"><path fill="#40ac70" d="M 354.734375 248.625 L 455.265625 248.625 L 455.265625 484.238281 L 354.734375 484.238281 Z M 354.734375 248.625 " fill-opacity="1" fill-rule="nonzero"/></g><g clip-path="url(#ce325a4ea2)"><path fill="#000000" d="M 503.359375 369.734375 L 500.824219 369.734375 C 485.625 369.734375 483.371094 377.925781 483.371094 394.027344 C 483.371094 412.378906 484.214844 428.191406 484.214844 447.390625 C 484.214844 478.167969 471.257812 481.84375 457.179688 481.84375 L 456.058594 481.84375 L 456.058594 477.042969 L 456.613281 477.042969 C 469 477.042969 479.425781 475.347656 479.425781 447.957031 C 479.425781 429.882812 478.578125 412.378906 478.578125 394.875 C 478.578125 376.230469 481.390625 369.457031 491.246094 367.195312 C 483.089844 363.808594 478.578125 360.421875 478.578125 339.25 C 478.578125 324.839844 479.425781 298.589844 479.425781 280.226562 C 479.425781 257.636719 466.757812 257.082031 457.179688 257.082031 L 456.058594 257.082031 L 456.058594 252.277344 L 457.179688 252.277344 C 470.691406 252.277344 484.214844 254.25 484.214844 281.917969 C 484.214844 300.839844 483.371094 325.6875 483.371094 340.375 C 483.371094 354.492188 485.902344 364.652344 500.824219 364.652344 L 503.359375 364.652344 L 503.359375 369.734375 " fill-opacity="1" fill-rule="nonzero"/></g><path fill="#000000" d="M 396.46875 561.949219 C 392.640625 561.496094 388.21875 562.988281 384.703125 560.882812 C 381.289062 558.839844 381.636719 554.003906 381.792969 550.589844 C 382.148438 542.886719 384.011719 533.660156 378.667969 527.097656 C 377.402344 525.542969 375.796875 524.28125 373.996094 523.492188 C 375.15625 522.878906 376.222656 522.085938 377.152344 521.167969 C 379.882812 518.472656 381.375 514.84375 381.964844 511.105469 C 382.628906 506.890625 382.207031 502.644531 381.894531 498.421875 C 381.730469 496.246094 381.601562 494.0625 381.699219 491.878906 C 381.769531 490.304688 381.957031 488.417969 383.0625 487.1875 C 384.347656 485.757812 386.539062 485.394531 388.371094 485.351562 C 390.832031 485.296875 393.265625 485.679688 395.726562 485.390625 C 396.695312 485.273438 397.519531 482.890625 396.167969 483.050781 C 392.308594 483.507812 388.339844 482.234375 384.652344 483.917969 C 381.105469 485.535156 379.972656 489.335938 379.808594 492.921875 C 379.613281 497.300781 380.3125 501.652344 380.425781 506.019531 C 380.527344 509.875 380.183594 513.988281 378.164062 517.375 C 376.214844 520.640625 372.460938 522.855469 368.597656 522.320312 C 367.761719 522.203125 366.886719 523.828125 367.292969 524.457031 C 367.316406 524.824219 367.519531 525.082031 367.996094 525.015625 C 371.480469 524.535156 374.894531 526.425781 377.042969 529.0625 C 379.53125 532.117188 380.355469 536.136719 380.488281 539.976562 C 380.640625 544.265625 379.96875 548.53125 379.863281 552.8125 C 379.777344 556.28125 379.832031 560.597656 382.960938 562.851562 C 386.613281 565.480469 391.449219 563.835938 395.566406 564.324219 C 396.574219 564.449219 397.628906 562.085938 396.46875 561.949219 Z M 396.46875 561.949219 " fill-opacity="1" fill-rule="nonzero"/><g fill="#000000" fill-opacity="1"><g transform="translate(508.076978, 373.873302)"><g><path d="M 10.21875 -8.609375 C 10.832031 -8.515625 11.390625 -8.265625 11.890625 -7.859375 C 12.390625 -7.460938 12.785156 -6.96875 13.078125 -6.375 C 13.378906 -5.789062 13.53125 -5.160156 13.53125 -4.484375 C 13.53125 -3.640625 13.3125 -2.875 12.875 -2.1875 C 12.445312 -1.507812 11.820312 -0.972656 11 -0.578125 C 10.175781 -0.191406 9.207031 0 8.09375 0 L 1.84375 0 L 1.84375 -16.734375 L 7.84375 -16.734375 C 8.976562 -16.734375 9.945312 -16.539062 10.75 -16.15625 C 11.550781 -15.78125 12.148438 -15.273438 12.546875 -14.640625 C 12.953125 -14.003906 13.15625 -13.285156 13.15625 -12.484375 C 13.15625 -11.484375 12.882812 -10.660156 12.34375 -10.015625 C 11.8125 -9.367188 11.101562 -8.898438 10.21875 -8.609375 Z M 4.03125 -9.5 L 7.703125 -9.5 C 8.722656 -9.5 9.515625 -9.738281 10.078125 -10.21875 C 10.640625 -10.695312 10.921875 -11.363281 10.921875 -12.21875 C 10.921875 -13.0625 10.640625 -13.722656 10.078125 -14.203125 C 9.515625 -14.679688 8.707031 -14.921875 7.65625 -14.921875 L 4.03125 -14.921875 Z M 7.890625 -1.796875 C 8.984375 -1.796875 9.832031 -2.050781 10.4375 -2.5625 C 11.050781 -3.082031 11.359375 -3.796875 11.359375 -4.703125 C 11.359375 -5.628906 11.035156 -6.359375 10.390625 -6.890625 C 9.753906 -7.429688 8.898438 -7.703125 7.828125 -7.703125 L 4.03125 -7.703125 L 4.03125 -1.796875 Z M 7.890625 -1.796875 "/></g></g></g><g fill="#000000" fill-opacity="1"><g transform="translate(522.789009, 373.873302)"><g><path d="M 7.578125 0.21875 C 6.347656 0.21875 5.234375 -0.0625 4.234375 -0.625 C 3.234375 -1.1875 2.445312 -1.984375 1.875 -3.015625 C 1.3125 -4.046875 1.03125 -5.238281 1.03125 -6.59375 C 1.03125 -7.9375 1.320312 -9.125 1.90625 -10.15625 C 2.488281 -11.195312 3.285156 -11.992188 4.296875 -12.546875 C 5.304688 -13.097656 6.4375 -13.375 7.6875 -13.375 C 8.925781 -13.375 10.050781 -13.097656 11.0625 -12.546875 C 12.070312 -11.992188 12.867188 -11.203125 13.453125 -10.171875 C 14.035156 -9.148438 14.328125 -7.957031 14.328125 -6.59375 C 14.328125 -5.238281 14.023438 -4.046875 13.421875 -3.015625 C 12.828125 -1.984375 12.015625 -1.1875 10.984375 -0.625 C 9.960938 -0.0625 8.828125 0.21875 7.578125 0.21875 Z M 7.578125 -1.703125 C 8.367188 -1.703125 9.109375 -1.882812 9.796875 -2.25 C 10.484375 -2.625 11.035156 -3.175781 11.453125 -3.90625 C 11.878906 -4.644531 12.09375 -5.539062 12.09375 -6.59375 C 12.09375 -7.65625 11.882812 -8.550781 11.46875 -9.28125 C 11.050781 -10.019531 10.503906 -10.566406 9.828125 -10.921875 C 9.160156 -11.285156 8.4375 -11.46875 7.65625 -11.46875 C 6.851562 -11.46875 6.117188 -11.285156 5.453125 -10.921875 C 4.796875 -10.566406 4.265625 -10.019531 3.859375 -9.28125 C 3.460938 -8.550781 3.265625 -7.65625 3.265625 -6.59375 C 3.265625 -5.519531 3.457031 -4.613281 3.84375 -3.875 C 4.238281 -3.144531 4.765625 -2.597656 5.421875 -2.234375 C 6.078125 -1.878906 6.796875 -1.703125 7.578125 -1.703125 Z M 7.578125 -1.703125 "/></g></g></g><g fill="#000000" fill-opacity="1"><g transform="translate(538.14904, 373.873302)"><g><path d="M 1.03125 -6.625 C 1.03125 -7.96875 1.300781 -9.144531 1.84375 -10.15625 C 2.382812 -11.175781 3.128906 -11.96875 4.078125 -12.53125 C 5.035156 -13.09375 6.109375 -13.375 7.296875 -13.375 C 8.316406 -13.375 9.265625 -13.132812 10.140625 -12.65625 C 11.023438 -12.1875 11.703125 -11.566406 12.171875 -10.796875 L 12.171875 -17.765625 L 14.375 -17.765625 L 14.375 0 L 12.171875 0 L 12.171875 -2.46875 C 11.734375 -1.6875 11.085938 -1.039062 10.234375 -0.53125 C 9.390625 -0.03125 8.398438 0.21875 7.265625 0.21875 C 6.097656 0.21875 5.035156 -0.0664062 4.078125 -0.640625 C 3.128906 -1.222656 2.382812 -2.03125 1.84375 -3.0625 C 1.300781 -4.101562 1.03125 -5.289062 1.03125 -6.625 Z M 12.171875 -6.59375 C 12.171875 -7.59375 11.96875 -8.457031 11.5625 -9.1875 C 11.164062 -9.925781 10.625 -10.488281 9.9375 -10.875 C 9.257812 -11.269531 8.515625 -11.46875 7.703125 -11.46875 C 6.890625 -11.46875 6.144531 -11.273438 5.46875 -10.890625 C 4.800781 -10.503906 4.265625 -9.941406 3.859375 -9.203125 C 3.460938 -8.472656 3.265625 -7.613281 3.265625 -6.625 C 3.265625 -5.613281 3.460938 -4.734375 3.859375 -3.984375 C 4.265625 -3.242188 4.800781 -2.675781 5.46875 -2.28125 C 6.144531 -1.894531 6.890625 -1.703125 7.703125 -1.703125 C 8.515625 -1.703125 9.257812 -1.894531 9.9375 -2.28125 C 10.625 -2.675781 11.164062 -3.242188 11.5625 -3.984375 C 11.96875 -4.734375 12.171875 -5.601562 12.171875 -6.59375 Z M 12.171875 -6.59375 "/></g></g></g><g fill="#000000" fill-opacity="1"><g transform="translate(554.373077, 373.873302)"><g><path d="M 13.171875 -13.15625 L 5.25 6.1875 L 3 6.1875 L 5.59375 -0.140625 L 0.28125 -13.15625 L 2.71875 -13.15625 L 6.84375 -2.5 L 10.921875 -13.15625 Z M 13.171875 -13.15625 "/></g></g></g><g fill="#000000" fill-opacity="1"><g transform="translate(298.477606, 531.176705)"><g><path d="M 22.875 -16.734375 L 18.03125 0 L 15.578125 0 L 11.6875 -13.46875 L 7.65625 0 L 5.234375 0.03125 L 0.546875 -16.734375 L 2.875 -16.734375 L 6.53125 -2.546875 L 10.5625 -16.734375 L 13.015625 -16.734375 L 16.84375 -2.59375 L 20.515625 -16.734375 Z M 22.875 -16.734375 "/></g></g></g><g fill="#000000" fill-opacity="1"><g transform="translate(321.901658, 531.176705)"><g><path d="M 2.96875 -15.28125 C 2.5625 -15.28125 2.210938 -15.425781 1.921875 -15.71875 C 1.628906 -16.007812 1.484375 -16.363281 1.484375 -16.78125 C 1.484375 -17.195312 1.628906 -17.546875 1.921875 -17.828125 C 2.210938 -18.117188 2.5625 -18.265625 2.96875 -18.265625 C 3.375 -18.265625 3.71875 -18.117188 4 -17.828125 C 4.28125 -17.546875 4.421875 -17.195312 4.421875 -16.78125 C 4.421875 -16.363281 4.28125 -16.007812 4 -15.71875 C 3.71875 -15.425781 3.375 -15.28125 2.96875 -15.28125 Z M 4.03125 -13.15625 L 4.03125 0 L 1.84375 0 L 1.84375 -13.15625 Z M 4.03125 -13.15625 "/></g></g></g><g fill="#000000" fill-opacity="1"><g transform="translate(327.805665, 531.176705)"><g><path d="M 1.03125 -6.59375 C 1.03125 -7.957031 1.300781 -9.144531 1.84375 -10.15625 C 2.382812 -11.175781 3.140625 -11.96875 4.109375 -12.53125 C 5.078125 -13.09375 6.1875 -13.375 7.4375 -13.375 C 9.050781 -13.375 10.382812 -12.976562 11.4375 -12.1875 C 12.488281 -11.40625 13.179688 -10.316406 13.515625 -8.921875 L 11.15625 -8.921875 C 10.9375 -9.722656 10.5 -10.351562 9.84375 -10.8125 C 9.195312 -11.28125 8.394531 -11.515625 7.4375 -11.515625 C 6.1875 -11.515625 5.175781 -11.085938 4.40625 -10.234375 C 3.644531 -9.378906 3.265625 -8.164062 3.265625 -6.59375 C 3.265625 -5.007812 3.644531 -3.785156 4.40625 -2.921875 C 5.175781 -2.054688 6.1875 -1.625 7.4375 -1.625 C 8.394531 -1.625 9.191406 -1.847656 9.828125 -2.296875 C 10.472656 -2.742188 10.914062 -3.382812 11.15625 -4.21875 L 13.515625 -4.21875 C 13.160156 -2.875 12.453125 -1.796875 11.390625 -0.984375 C 10.335938 -0.179688 9.019531 0.21875 7.4375 0.21875 C 6.1875 0.21875 5.078125 -0.0625 4.109375 -0.625 C 3.140625 -1.1875 2.382812 -1.976562 1.84375 -3 C 1.300781 -4.019531 1.03125 -5.21875 1.03125 -6.59375 Z M 1.03125 -6.59375 "/></g></g></g><g fill="#000000" fill-opacity="1"><g transform="translate(342.373696, 531.176705)"><g><path d="M 9.1875 0 L 4.03125 -5.8125 L 4.03125 0 L 1.84375 0 L 1.84375 -17.765625 L 4.03125 -17.765625 L 4.03125 -7.3125 L 9.09375 -13.15625 L 12.140625 -13.15625 L 5.953125 -6.59375 L 12.171875 0 Z M 9.1875 0 "/></g></g></g><g fill="#000000" fill-opacity="1"><g transform="translate(298.477606, 219.184975)"><g><path d="M 22.875 -16.734375 L 18.03125 0 L 15.578125 0 L 11.6875 -13.46875 L 7.65625 0 L 5.234375 0.03125 L 0.546875 -16.734375 L 2.875 -16.734375 L 6.53125 -2.546875 L 10.5625 -16.734375 L 13.015625 -16.734375 L 16.84375 -2.59375 L 20.515625 -16.734375 Z M 22.875 -16.734375 "/></g></g></g><g fill="#000000" fill-opacity="1"><g transform="translate(321.901658, 219.184975)"><g><path d="M 2.96875 -15.28125 C 2.5625 -15.28125 2.210938 -15.425781 1.921875 -15.71875 C 1.628906 -16.007812 1.484375 -16.363281 1.484375 -16.78125 C 1.484375 -17.195312 1.628906 -17.546875 1.921875 -17.828125 C 2.210938 -18.117188 2.5625 -18.265625 2.96875 -18.265625 C 3.375 -18.265625 3.71875 -18.117188 4 -17.828125 C 4.28125 -17.546875 4.421875 -17.195312 4.421875 -16.78125 C 4.421875 -16.363281 4.28125 -16.007812 4 -15.71875 C 3.71875 -15.425781 3.375 -15.28125 2.96875 -15.28125 Z M 4.03125 -13.15625 L 4.03125 0 L 1.84375 0 L 1.84375 -13.15625 Z M 4.03125 -13.15625 "/></g></g></g><g fill="#000000" fill-opacity="1"><g transform="translate(327.805665, 219.184975)"><g><path d="M 1.03125 -6.59375 C 1.03125 -7.957031 1.300781 -9.144531 1.84375 -10.15625 C 2.382812 -11.175781 3.140625 -11.96875 4.109375 -12.53125 C 5.078125 -13.09375 6.1875 -13.375 7.4375 -13.375 C 9.050781 -13.375 10.382812 -12.976562 11.4375 -12.1875 C 12.488281 -11.40625 13.179688 -10.316406 13.515625 -8.921875 L 11.15625 -8.921875 C 10.9375 -9.722656 10.5 -10.351562 9.84375 -10.8125 C 9.195312 -11.28125 8.394531 -11.515625 7.4375 -11.515625 C 6.1875 -11.515625 5.175781 -11.085938 4.40625 -10.234375 C 3.644531 -9.378906 3.265625 -8.164062 3.265625 -6.59375 C 3.265625 -5.007812 3.644531 -3.785156 4.40625 -2.921875 C 5.175781 -2.054688 6.1875 -1.625 7.4375 -1.625 C 8.394531 -1.625 9.191406 -1.847656 9.828125 -2.296875 C 10.472656 -2.742188 10.914062 -3.382812 11.15625 -4.21875 L 13.515625 -4.21875 C 13.160156 -2.875 12.453125 -1.796875 11.390625 -0.984375 C 10.335938 -0.179688 9.019531 0.21875 7.4375 0.21875 C 6.1875 0.21875 5.078125 -0.0625 4.109375 -0.625 C 3.140625 -1.1875 2.382812 -1.976562 1.84375 -3 C 1.300781 -4.019531 1.03125 -5.21875 1.03125 -6.59375 Z M 1.03125 -6.59375 "/></g></g></g><g fill="#000000" fill-opacity="1"><g transform="translate(342.373696, 219.184975)"><g><path d="M 9.1875 0 L 4.03125 -5.8125 L 4.03125 0 L 1.84375 0 L 1.84375 -17.765625 L 4.03125 -17.765625 L 4.03125 -7.3125 L 9.09375 -13.15625 L 12.140625 -13.15625 L 5.953125 -6.59375 L 12.171875 0 Z M 9.1875 0 "/></g></g></g><g clip-path="url(#231c58dd13)"><path fill="#000000" d="M 396.167969 245.839844 C 392.804688 245.433594 388.921875 246.769531 385.835938 244.890625 C 382.839844 243.066406 383.140625 238.753906 383.28125 235.710938 C 383.59375 228.839844 385.226562 220.609375 380.539062 214.757812 C 379.425781 213.371094 378.015625 212.246094 376.4375 211.539062 C 377.453125 210.996094 378.390625 210.285156 379.207031 209.46875 C 381.605469 207.066406 382.914062 203.824219 383.429688 200.492188 C 384.011719 196.734375 383.644531 192.949219 383.367188 189.179688 C 383.226562 187.238281 383.113281 185.289062 383.195312 183.347656 C 383.257812 181.941406 383.421875 180.257812 384.394531 179.160156 C 385.523438 177.882812 387.449219 177.5625 389.054688 177.523438 C 391.21875 177.476562 393.355469 177.816406 395.515625 177.554688 C 396.363281 177.453125 397.089844 175.328125 395.902344 175.472656 C 392.515625 175.878906 389.03125 174.742188 385.792969 176.242188 C 382.675781 177.683594 381.679688 181.074219 381.539062 184.277344 C 381.367188 188.179688 381.980469 192.0625 382.082031 195.957031 C 382.167969 199.394531 381.867188 203.0625 380.09375 206.085938 C 378.382812 208.996094 375.085938 210.972656 371.695312 210.496094 C 370.960938 210.390625 370.191406 211.839844 370.550781 212.402344 C 370.570312 212.730469 370.746094 212.960938 371.164062 212.898438 C 374.226562 212.46875 377.222656 214.15625 379.109375 216.507812 C 381.292969 219.230469 382.019531 222.820312 382.136719 226.242188 C 382.269531 230.070312 381.679688 233.871094 381.585938 237.691406 C 381.511719 240.785156 381.558594 244.636719 384.308594 246.644531 C 387.515625 248.992188 391.761719 247.523438 395.375 247.957031 C 396.257812 248.070312 397.1875 245.964844 396.167969 245.839844 Z M 396.167969 245.839844 " fill-opacity="1" fill-rule="nonzero"/></g></svg>